<?xml version="1.0" encoding="UTF-8" standalone="no"?>
<svg
   xmlns:osb="http://www.openswatchbook.org/uri/2009/osb"
   xmlns:dc="http://purl.org/dc/elements/1.1/"
   xmlns:cc="http://creativecommons.org/ns#"
   xmlns:rdf="http://www.w3.org/1999/02/22-rdf-syntax-ns#"
   xmlns:svg="http://www.w3.org/2000/svg"
   xmlns="http://www.w3.org/2000/svg"
   xmlns:xlink="http://www.w3.org/1999/xlink"
   xmlns:sodipodi="http://sodipodi.sourceforge.net/DTD/sodipodi-0.dtd"
   xmlns:inkscape="http://www.inkscape.org/namespaces/inkscape"
   sodipodi:docname="leaf.svg"
   inkscape:version="1.0 (4035a4fb49, 2020-05-01)"
   id="svg330"
   version="1.1"
   viewBox="0 0 210 297"
   height="297mm"
   width="210mm">
  <defs
     id="defs324">
    <linearGradient
       id="linearGradient4034"
       inkscape:collect="always">
      <stop
         id="stop4030"
         offset="0"
         style="stop-color:#47802b;stop-opacity:1;" />
      <stop
         id="stop4032"
         offset="1"
         style="stop-color:#47802b;stop-opacity:0;" />
    </linearGradient>
    <linearGradient
       osb:paint="solid"
       id="linearGradient3872">
      <stop
         id="stop3870"
         offset="0"
         style="stop-color:#fd8ede;stop-opacity:0.94901961;" />
    </linearGradient>
    <linearGradient
       id="fdac07"
       inkscape:collect="always">
      <stop
         id="stop1892"
         offset="0"
         style="stop-color:#47802b;stop-opacity:1;" />
      <stop
         id="stop1894"
         offset="1"
         style="stop-color:#47802b;stop-opacity:0;" />
    </linearGradient>
    <filter
       id="filter392"
       style="color-interpolation-filters:sRGB;"
       inkscape:menu-tooltip="Light areas turn to black"
       inkscape:menu="Color"
       inkscape:label="Black Light">
      <feColorMatrix
         id="feColorMatrix384"
         result="result2"
         type="luminanceToAlpha" />
      <feComposite
         id="feComposite386"
         result="result4"
         k3="2"
         in="result2"
         operator="arithmetic"
         in2="SourceGraphic" />
      <feBlend
         id="feBlend388"
         in2="result2"
         result="result3"
         mode="multiply"
         in="result4" />
      <feComposite
         id="feComposite390"
         in="result3"
         operator="in"
         in2="SourceGraphic" />
    </filter>
    <linearGradient
       gradientUnits="userSpaceOnUse"
       y2="130.18298"
       x2="204.30499"
       y1="130.18298"
       x1="80.849274"
       id="linearGradient4018"
       xlink:href="#fdac07"
       inkscape:collect="always" />
    <linearGradient
       gradientUnits="userSpaceOnUse"
       y2="121.29699"
       x2="64.640259"
       y1="121.29699"
       x1="26.288687"
       id="linearGradient4038"
       xlink:href="#linearGradient4034"
       inkscape:collect="always" />
  </defs>
  <sodipodi:namedview
     inkscape:window-maximized="1"
     inkscape:window-y="1609"
     inkscape:window-x="-11"
     inkscape:window-height="986"
     inkscape:window-width="1920"
     showgrid="false"
     inkscape:document-rotation="0"
     inkscape:current-layer="layer1"
     inkscape:document-units="mm"
     inkscape:cy="589.33867"
     inkscape:cx="163.28303"
     inkscape:zoom="0.7"
     inkscape:pageshadow="2"
     inkscape:pageopacity="0.0"
     borderopacity="1.0"
     bordercolor="#666666"
     pagecolor="#ffffff"
     id="base" />
  <metadata
     id="metadata327">
    <rdf:RDF>
      <cc:Work
         rdf:about="">
        <dc:format>image/svg+xml</dc:format>
        <dc:type
           rdf:resource="http://purl.org/dc/dcmitype/StillImage" />
        <dc:title></dc:title>
      </cc:Work>
    </rdf:RDF>
  </metadata>
  <g
     id="layer1"
     inkscape:groupmode="layer"
     inkscape:label="Layer 1">
    <path
       d="m 79.934186,272.76355 c -0.07004,-6.03164 -0.07328,-12.06441 -0.07944,-18.09664 -0.108219,-8.65163 -0.774162,-17.27912 -1.435096,-25.88816 -0.894688,-10.17635 -2.107531,-20.29113 -3.761374,-30.31947 -1.912513,-11.1951 -4.395612,-22.21831 -6.999427,-33.19077 -2.48012,-9.62503 -4.517613,-19.40343 -6.341231,-29.24705 -1.014555,-6.11109 -1.829734,-12.26917 -2.729522,-18.40716 -0.364206,-2.79523 -1.354241,-5.351 -2.202385,-7.9521 -0.451509,-1.50694 -0.219878,-0.7674 -0.693521,-2.21921 0,0 -3.783335,2.62199 -3.783335,2.62199 v 0 c 0.474065,1.43963 0.239945,0.70229 0.700598,2.21294 0.834428,2.56656 1.812655,5.08493 2.19905,7.83397 0.955876,6.11176 1.849945,12.23864 2.877851,18.33271 1.833186,9.84559 3.908092,19.61416 6.410572,29.23478 2.595565,10.96015 5.066578,21.97611 6.978519,33.15537 1.616854,10.02641 2.790784,20.14131 3.690376,30.30513 0.640055,8.60518 1.279095,17.22912 1.371913,25.87453 -0.0058,6.0656 -0.01031,12.1317 -0.07929,18.19676 0,0 3.87554,-2.44762 3.87554,-2.44762 z"
       id="path344"
       style="mix-blend-mode:normal;fill:#47802b;fill-opacity:1;stroke-width:0.428908;opacity:1" />
    <path
       d="m 79.929869,246.68075 c 0.117765,-6.92252 0.465772,-13.82834 0.990514,-20.72078 0.446272,-7.15607 1.53273,-13.68167 3.932439,-20.25627 1.580851,-4.33108 2.891604,-6.87162 4.823353,-10.97838 4.014641,-7.89509 9.02906,-14.90936 14.526685,-21.26088 3.53549,-4.08464 7.3912,-7.9653 11.09534,-11.80055 10.21035,-10.33467 21.00018,-19.73609 31.57715,-29.47538 2.6206,-2.55684 5.33323,-4.96157 7.99101,-7.4565 0,0 -3.98186,1.96609 -3.98186,1.96609 v 0 c -2.60138,2.45345 -5.23393,4.85583 -7.80446,7.35992 -10.48291,9.7408 -21.1957,19.11501 -31.34779,29.39048 -3.82107,3.95548 -7.51887,7.66734 -11.15802,11.876 -5.530151,6.39554 -10.572792,13.45481 -14.578049,21.4302 -1.943834,4.16177 -3.231609,6.66807 -4.818684,11.05778 -2.419077,6.69086 -3.49417,13.15472 -3.943584,20.42121 -0.540939,6.95038 -0.928915,13.913 -1.170964,20.8892 0,0 3.86692,-2.44214 3.86692,-2.44214 z"
       id="path346"
       style="fill:#47802b;stroke-width:0.428908;fill-opacity:1" />
    <path
       d="m 96.642271,191.26458 c 0.387963,2.52216 0.982028,4.93055 1.924069,7.21493 0.93479,2.39661 2.42642,4.09776 4.12059,5.6544 2.07455,1.8602 4.44628,3.02001 6.87861,3.92874 2.23923,0.80235 4.55721,1.06913 6.87442,1.21768 1.93002,0.13632 3.65947,-0.8922 5.39444,-1.78682 3.89437,-2.47196 7.6218,-5.44083 11.04113,-8.83393 2.26903,-2.15192 4.27651,-4.72736 6.01612,-7.53073 1.4478,-2.6841 2.68988,-5.32642 4.33434,-7.84783 1.96148,-3.13783 4.06487,-6.13075 5.9282,-9.36298 1.99609,-4.13931 3.83995,-8.38509 5.85618,-12.50986 2.48327,-5.20889 4.67477,-10.61228 7.18215,-15.80488 2.5586,-4.75847 5.0263,-9.5943 7.62809,-14.31656 1.78692,-3.23133 3.38004,-6.61864 5.04967,-9.9434 0.4179,-0.83215 0.80421,-1.69043 1.25864,-2.49259 0.52625,-0.92883 1.11992,-1.79607 1.67984,-2.69407 5.1135,-6.76414 11.48078,-11.71865 17.65101,-16.838146 2.57136,-2.167106 1.34578,-1.154689 3.67215,-3.045677 0,0 -4.95962,2.402954 -4.95962,2.402954 v 0 c -2.26514,1.875769 -1.06894,0.874736 -3.58564,3.008579 -6.17268,5.15981 -12.52312,10.20037 -17.59991,17.04101 -0.56466,0.92314 -1.16098,1.81775 -1.69395,2.76937 -2.25052,4.01843 -3.9889,8.46766 -6.32659,12.41845 -2.58167,4.7369 -5.08283,9.54372 -7.5914,14.34013 -2.48264,5.22712 -4.70868,10.63 -7.23121,15.82814 -1.9903,4.14373 -3.83315,8.39472 -5.90759,12.47554 -1.89642,3.20005 -3.974,6.21769 -5.94941,9.34138 -1.58692,2.50803 -2.86147,5.25406 -4.34231,7.85553 -1.78331,2.73446 -3.77337,5.2718 -6.05335,7.3779 -1.10928,1.05481 -2.24582,2.04932 -3.38419,3.055 -0.37927,0.33511 -1.55873,1.25377 -1.13928,1.00283 0.54034,-0.32325 5.48257,-3.80619 2.72052,-1.86198 -1.68446,0.9159 -3.3817,1.99987 -5.25595,2.03429 -2.2957,-0.10635 -4.59597,-0.31715 -6.82372,-1.06396 -2.38381,-0.8511 -4.72717,-1.9487 -6.76613,-3.74079 -1.6251,-1.4848 -3.07735,-3.10767 -3.98017,-5.39711 -0.91511,-2.23973 -1.49162,-4.61088 -1.82096,-7.09194 0,0 -4.798789,3.1964 -4.798789,3.1964 z"
       id="path360"
       style="fill:#47802b;stroke-width:0.428908;fill-opacity:1" />
    <path
       d="m 96.256687,173.78808 c -2.104578,-1.21508 -3.946991,-3.01792 -5.783118,-4.75628 -1.010103,-1.149 -2.161832,-2.20784 -2.958504,-3.61477 -0.579909,-1.02413 -0.720111,-1.61661 -1.110453,-2.76937 -0.647498,-2.4027 -0.950602,-5.00092 -0.729244,-7.53496 0.169878,-1.94451 0.524903,-3.24663 0.941485,-5.12651 0.516094,-1.76625 0.897317,-3.36015 1.715471,-4.96976 2.119086,-4.16907 5.562568,-7.00935 8.739039,-9.79148 0.944407,-0.71227 1.840592,-1.53355 2.833177,-2.13678 0.34583,-0.21018 -1.236719,1.08751 -0.869505,0.94337 1.376015,-0.54012 2.630835,-1.47429 3.964535,-2.15827 3.5657,-1.82867 7.20689,-3.46563 10.80816,-5.18468 6.37808,-3.10113 12.80363,-6.04857 19.35322,-8.5436 8.0137,-2.65959 16.11021,-4.90172 24.13664,-7.50627 5.74772,-1.80632 11.35816,-4.16536 16.94446,-6.60799 2.71802,-1.15386 5.39317,-2.41942 7.89386,-4.177962 4.18749,-2.501007 7.82186,-6.111232 11.83374,-8.956509 2.6888,-2.036561 5.4447,-3.930311 8.02996,-6.167867 1.51835,-1.255855 0.75001,-0.634573 2.30538,-1.863195 0,0 -5.00938,2.417194 -5.00938,2.417194 v 0 c -1.55468,1.247226 -0.78521,0.617667 -2.30858,1.888253 -2.58792,2.183949 -5.31977,4.081442 -7.99389,6.09602 -1.39473,1.023693 -2.71722,2.133997 -4.07814,3.220719 -0.35089,0.28016 -0.7098,0.544534 -1.06377,0.818586 -0.35522,0.275009 -1.43237,1.075271 -1.06388,0.828545 1.1921,-0.79817 2.35756,-1.655995 3.53635,-2.484005 -0.35815,0.25921 -1.6632,1.215288 -2.06708,1.464488 -1.86974,1.153719 -3.89191,1.919474 -5.8285,2.869611 -5.63441,2.475512 -11.26484,4.977582 -17.06892,6.795172 -8.02272,2.61657 -16.1146,4.86898 -24.1379,7.47723 -6.55107,2.42967 -12.97419,5.34236 -19.33166,8.46211 -2.28773,1.1032 -4.57183,2.21791 -6.86132,3.31537 -2.16836,1.03937 -5.89875,2.71722 -7.98139,4.01899 -2.70412,1.69027 -5.350594,3.52026 -7.990163,5.36069 -0.966623,0.67397 -1.882941,1.45317 -2.824425,2.17974 -3.225721,2.88323 -6.636575,5.81245 -8.723179,10.13707 -0.810271,1.67936 -1.169468,3.25967 -1.679879,5.08595 -0.403835,1.92134 -0.759522,3.30434 -0.917241,5.29113 -0.208276,2.62392 0.112919,5.32304 0.7977,7.80321 0.410943,1.20426 0.579411,1.86796 1.176867,2.95188 0.80563,1.46158 1.980103,2.55943 3.01646,3.74666 1.862442,1.74623 3.733136,3.53563 5.801195,4.89098 0,0 4.552422,-3.71271 4.552422,-3.71271 z"
       id="path362"
       style="mix-blend-mode:color;fill:url(#linearGradient4018);fill-opacity:1;stroke-width:0.428908" />
    <path
       d="m 59.610922,184.65474 c -0.229158,0.28754 -0.451426,0.58377 -0.68747,0.86263 -0.261507,0.30895 -0.513478,0.63483 -0.804547,0.90006 -0.324411,0.29564 -1.371015,1.04728 -1.033571,0.77497 1.086586,-0.87686 2.345528,-1.47662 3.281384,-2.58895 0.397537,-0.47248 -1.051206,0.41127 -1.586105,0.57404 -0.548194,0.16673 -1.106798,0.2758 -1.660189,0.4137 -3.695971,0.70217 -5.999506,-0.0715 -9.245206,-2.16761 -3.299394,-2.15775 -6.415518,-4.67826 -9.220976,-7.72509 -4.021602,-4.53918 -5.451456,-9.37995 -6.890965,-15.72201 -1.506969,-7.11584 -0.778746,-13.02446 0.912689,-19.91347 1.996702,-6.96949 4.364652,-13.76769 6.817947,-20.50612 2.525833,-6.82482 5.091389,-13.6293 7.145502,-20.698038 1.575649,-6.049113 2.234169,-12.359117 2.643921,-18.669283 0.347112,-5.649422 -1.14767,-11.050538 -2.771719,-16.239048 -1.204297,-3.817633 -2.658466,-7.483353 -4.157572,-11.131422 0,0 -4.647044,3.287491 -4.647044,3.287491 v 0 c 1.506285,3.615224 3.001035,7.230754 4.179415,11.03667 1.58919,5.111461 3.02711,10.414738 2.66608,15.975088 -0.404989,6.251047 -1.078112,12.501327 -2.658716,18.485092 -2.061231,7.04851 -4.644332,13.82044 -7.142224,20.64289 -2.436738,6.78376 -4.875672,13.58618 -6.832986,20.60969 -0.243324,1.03912 -0.520879,2.06687 -0.72997,3.11738 -1.120032,5.62725 -1.265814,11.49683 -0.03175,17.11399 1.48057,6.41756 2.910803,11.46886 6.981958,16.08822 2.807871,3.1064 5.937246,5.68209 9.257319,7.8811 3.224846,2.16595 5.733848,3.16374 9.457861,2.53001 0.508721,-0.11234 2.800113,-0.57149 3.295044,-0.8625 3.237369,-1.90358 6.100195,-3.52489 8.491226,-6.65162 0,0 -5.029304,2.58214 -5.029304,2.58214 z"
       id="path364"
       style="fill:url(#linearGradient4038);stroke-width:0.428908;fill-opacity:1" />
    <path
       d="m 73.717349,178.58115 c 3.986536,-0.58291 6.996138,-3.31409 10.44846,-5.78937 0.230712,-0.22349 0.461439,-0.44697 0.692154,-0.67043 0,0 -5.041571,2.47927 -5.041571,2.47927 v 0 c -0.234692,0.20186 -0.46937,0.40374 -0.704046,0.60562 1.27284,-0.90063 2.545666,-1.80126 3.818492,-2.70191 -0.284045,0.19675 -0.558868,0.4156 -0.852178,0.59028 -1.256101,0.74804 -2.622727,1.17745 -3.990118,1.467 0,0 -4.371193,4.01954 -4.371193,4.01954 z"
       id="path366"
       style="fill:#008000;stroke-width:0.428908" />
    <path
       d="m 101.33491,127.9182 c 0.0383,-2.64471 -0.0806,-5.2714 -0.59846,-7.84151 -0.70729,-2.66884 -1.450307,-5.32856 -2.339664,-7.91459 -0.906419,-2.96413 -1.853014,-5.91015 -2.870269,-8.81933 -1.138232,-3.27993 -2.639686,-6.281001 -4.382279,-9.108651 -2.159216,-3.181871 -4.484993,-6.189938 -6.761592,-9.244238 -2.551364,-3.764098 -5.905407,-6.422145 -9.088793,-9.271164 -2.967196,-2.613363 -5.812297,-5.430295 -8.694093,-8.184883 -2.663982,-2.42928 -5.034221,-5.277938 -7.454826,-8.056296 -2.374126,-2.96126 -4.881876,-5.752814 -7.253527,-8.716276 -2.391716,-3.261518 -4.404286,-6.903994 -6.439485,-10.506458 -1.668707,-3.175305 -3.120417,-6.517663 -4.837452,-9.65245 -1.54481,-2.77988 -3.20583,-5.45044 -4.717648,-8.25885 -1.00161,-1.887283 -1.980406,-3.779983 -2.521012,-5.949914 -0.07134,-0.236751 -0.142845,-0.473522 -0.214175,-0.710292 0,0 -4.762143,3.281753 -4.762143,3.281753 v 0 c 0.0696,0.224965 0.139202,0.449933 0.208801,0.674918 0.595193,2.210647 1.600447,4.151226 2.631836,6.087564 1.522036,2.803555 3.20922,5.453416 4.754382,8.23683 1.719219,3.138579 3.155466,6.496494 4.839608,9.664941 2.074246,3.612858 4.129817,7.259215 6.485801,10.60287 2.387566,2.957469 4.907561,5.747814 7.271511,8.736217 2.444935,2.773217 4.798154,5.674594 7.482741,8.103854 2.894681,2.752341 5.756097,5.56152 8.731222,8.180308 3.160289,2.815235 6.482042,5.446206 9.014243,9.174106 2.274016,3.026174 4.557458,6.047419 6.699231,9.218117 1.724047,2.775374 3.220096,5.719804 4.32438,8.959734 1.007461,2.91447 1.936083,5.87047 2.845042,8.83351 0.876098,2.55445 1.615856,5.18007 2.287143,7.82613 0.488767,2.53187 0.601509,5.11772 0.509647,7.71698 0,0 4.84983,-3.06293 4.84983,-3.06293 z"
       id="path368"
       style="fill:#47802b;stroke-width:0.428908;fill-opacity:1" />
    <path
       d="m 107.00731,177.03388 c 2.04136,-0.76475 4.12197,-1.30684 6.23662,-1.63247 2.31394,-0.29525 4.63429,-0.33054 6.95215,-0.12687 2.45236,0.15629 4.90716,0.47237 7.36451,0.3911 1.26297,-0.1471 2.50521,-0.48353 3.75039,-0.77175 0,0 2.5731,-2.40806 2.5731,-2.40806 v 0 c -1.2316,0.28295 -2.45922,0.60469 -3.70258,0.79999 -2.45024,0.15811 -4.90494,-0.19243 -7.35084,-0.34696 -2.32916,-0.22522 -4.65739,-0.2083 -6.98637,0.0625 -2.11374,0.29148 -4.2008,0.80082 -6.23521,1.57991 0,0 -2.60177,2.45253 -2.60177,2.45253 z"
       id="path370"
       style="fill:#47802b;stroke-width:0.428908;fill-opacity:1" />
    <path
       d="m 111.88676,158.25298 c 1.90026,-2.05334 2.74776,-4.87802 3.35925,-7.81968 0.50956,-3.07096 0.51458,-6.22414 0.54448,-9.34623 0.006,-2.10203 -4.1e-4,-4.20406 -0.006,-6.30603 0,0 -2.90131,1.83502 -2.90131,1.83502 v 0 c 0.0151,2.09605 0.0335,4.19218 0.0218,6.28833 -0.0238,3.09375 -0.0404,6.21976 -0.57758,9.25581 -0.63791,2.91875 -1.55041,5.63346 -3.45853,7.64205 0,0 3.0176,-1.54927 3.0176,-1.54927 z"
       id="path372"
       style="fill:#47802b;stroke-width:0.428908;fill-opacity:1" />
    <path
       d="m 133.97483,149.74721 c 2.24246,-0.65581 4.48105,-1.34154 6.71553,-2.04076 1.73683,-0.61857 3.42454,-1.40942 5.09172,-2.26749 1.28091,-0.71726 2.66415,-0.87602 4.04824,-0.97864 2.78463,0.0146 3.76872,-1.17062 6.36982,-3.0616 0.13627,-0.16783 0.27227,-0.33548 0.4084,-0.50321 0,0 -3.02771,1.53424 -3.02771,1.53424 v 0 c -0.14257,0.14727 -0.28502,0.29435 -0.42756,0.44155 4.72978,-3.2835 2.3011,-1.36476 1.29972,-1.06775 -0.64729,0.19201 -1.33213,0.24527 -1.99411,0.2624 -1.39785,0.0852 -2.81009,0.17813 -4.11557,0.87029 -1.671,0.85624 -3.34639,1.69026 -5.08231,2.33025 -2.21774,0.72169 -4.45511,1.36984 -6.68438,2.02821 0,0 -2.60179,2.45251 -2.60179,2.45251 z"
       id="path374"
       style="fill:#47802b;stroke-width:0.428908;fill-opacity:1" />
    <path
       d="m 72.044226,151.28909 c 0.950252,-2.22573 1.593008,-4.59553 2.291431,-6.95011 0.623609,-2.21287 1.310519,-4.39908 1.843955,-6.64902 0.379886,-1.81638 0.471866,-3.68777 0.516387,-5.55433 0.01938,-1.07741 0.01807,-2.15511 0.0169,-3.23273 0,0 -2.911942,1.83986 -2.911942,1.83986 v 0 c 0.0014,1.07248 0.0045,2.14515 -0.01674,3.21744 -0.05022,1.83582 -0.151597,3.67793 -0.547664,5.45764 -0.541922,2.2358 -1.219362,4.4153 -1.839152,6.61889 -0.689966,2.35651 -1.369785,4.70816 -2.332164,6.92293 0,0 2.978988,-1.67057 2.978989,-1.67057 z"
       id="path376"
       style="fill:#47802b;stroke-width:0.428908;fill-opacity:1" />
    <path
       d="m 53.873577,142.16853 c -2.218415,0.69114 -4.462255,1.23895 -6.728282,1.62232 -1.621312,0.14567 -2.947218,-0.75102 -4.288719,-1.72161 -0.178193,-0.14763 -0.356401,-0.29527 -0.534608,-0.4429 0,0 -2.751714,2.18076 -2.751714,2.18076 v 0 c 0.18291,0.15501 0.365836,0.30995 0.548745,0.46493 1.39264,0.9931 2.741538,1.98949 4.423231,1.92951 2.265143,-0.37168 4.510917,-0.90379 6.728195,-1.59001 0,0 2.603152,-2.443 2.603152,-2.443 z"
       id="path380"
       style="fill:#47802b;stroke-width:0.428908;fill-opacity:1" />
    <path
       transform="matrix(1.4560638,0,0,1.8047868,-56.290805,-100.3066)"
       d="m 83.169614,117.75283 c 0.49114,-1.69533 0.69729,-3.45576 0.85055,-5.20888 0.16352,-1.57817 0.10424,-3.15251 -0.0395,-4.7277 -0.0687,-0.66822 -0.12078,-1.33775 -0.1602,-2.00826 0,0 -1.99275,1.03106 -1.99275,1.03106 v 0 c 0.0443,0.67078 0.10171,1.34043 0.17393,2.00885 0.14866,1.56135 0.19376,3.12165 0.0326,4.68601 -0.15575,1.74558 -0.36304,3.49967 -0.89089,5.17805 0,0 2.02629,-0.95913 2.02629,-0.95913 z"
       id="path382"
       style="fill:#47802b;stroke-width:0.264583;filter:url(#filter392);fill-opacity:1" />
  </g>
</svg>
