<?xml version="1.0" encoding="UTF-8" standalone="no"?>
<svg
   xmlns:dc="http://purl.org/dc/elements/1.1/"
   xmlns:cc="http://creativecommons.org/ns#"
   xmlns:rdf="http://www.w3.org/1999/02/22-rdf-syntax-ns#"
   xmlns:svg="http://www.w3.org/2000/svg"
   xmlns="http://www.w3.org/2000/svg"
   xmlns:xlink="http://www.w3.org/1999/xlink"
   xmlns:sodipodi="http://sodipodi.sourceforge.net/DTD/sodipodi-0.dtd"
   xmlns:inkscape="http://www.inkscape.org/namespaces/inkscape"
   inkscape:version="1.0 (4035a4fb49, 2020-05-01)"
   sodipodi:docname="cactus.svg"
   id="svg27"
   version="1.1"
   viewBox="0 0 210 297"
   height="297mm"
   width="210mm">
  <defs
     id="defs21">
    <linearGradient
       id="linearGradient1106"
       inkscape:collect="always">
      <stop
         id="stop1102"
         offset="0"
         style="stop-color:#47802b;stop-opacity:1;" />
      <stop
         id="stop1104"
         offset="1"
         style="stop-color:#47802b;stop-opacity:0;" />
    </linearGradient>
    <linearGradient
       id="linearGradient1098"
       inkscape:collect="always">
      <stop
         id="stop1094"
         offset="0"
         style="stop-color:#47802b;stop-opacity:1;" />
      <stop
         id="stop1096"
         offset="1"
         style="stop-color:#47802b;stop-opacity:0;" />
    </linearGradient>
    <linearGradient
       id="linearGradient1090"
       inkscape:collect="always">
      <stop
         id="stop1086"
         offset="0"
         style="stop-color:#fdac07;stop-opacity:1;" />
      <stop
         id="stop1088"
         offset="1"
         style="stop-color:#fdac07;stop-opacity:0;" />
    </linearGradient>
    <linearGradient
       id="linearGradient1082"
       inkscape:collect="always">
      <stop
         id="stop1078"
         offset="0"
         style="stop-color:#fdac07;stop-opacity:1;" />
      <stop
         id="stop1080"
         offset="1"
         style="stop-color:#fdac07;stop-opacity:0;" />
    </linearGradient>
    <linearGradient
       id="linearGradient1074"
       inkscape:collect="always">
      <stop
         id="stop1070"
         offset="0"
         style="stop-color:#47802b;stop-opacity:1;" />
      <stop
         id="stop1072"
         offset="1"
         style="stop-color:#47802b;stop-opacity:0;" />
    </linearGradient>
    <linearGradient
       id="linearGradient1066"
       inkscape:collect="always">
      <stop
         id="stop1062"
         offset="0"
         style="stop-color:#47802b;stop-opacity:1;" />
      <stop
         id="stop1064"
         offset="1"
         style="stop-color:#47802b;stop-opacity:0;" />
    </linearGradient>
    <linearGradient
       id="linearGradient1058"
       inkscape:collect="always">
      <stop
         id="stop1054"
         offset="0"
         style="stop-color:#47802b;stop-opacity:1;" />
      <stop
         id="stop1056"
         offset="1"
         style="stop-color:#47802b;stop-opacity:0;" />
    </linearGradient>
    <linearGradient
       id="linearGradient1050"
       inkscape:collect="always">
      <stop
         id="stop1046"
         offset="0"
         style="stop-color:#47802b;stop-opacity:1;" />
      <stop
         id="stop1048"
         offset="1"
         style="stop-color:#47802b;stop-opacity:0;" />
    </linearGradient>
    <linearGradient
       id="linearGradient1034"
       inkscape:collect="always">
      <stop
         id="stop1030"
         offset="0"
         style="stop-color:#47802b;stop-opacity:1;" />
      <stop
         id="stop1032"
         offset="1"
         style="stop-color:#47802b;stop-opacity:0;" />
    </linearGradient>
    <linearGradient
       id="linearGradient1014"
       inkscape:collect="always">
      <stop
         id="stop1010"
         offset="0"
         style="stop-color:#47802b;stop-opacity:1;" />
      <stop
         id="stop1012"
         offset="1"
         style="stop-color:#47802b;stop-opacity:0;" />
    </linearGradient>
    <linearGradient
       gradientTransform="matrix(1.1114487,0,0,1.2517028,-18.331328,-37.860326)"
       gradientUnits="userSpaceOnUse"
       y2="149.07208"
       x2="76.210472"
       y1="149.07208"
       x1="40.161072"
       id="linearGradient1020"
       xlink:href="#linearGradient1014"
       inkscape:collect="always" />
    <linearGradient
       gradientTransform="matrix(1.1114487,0,0,1.2517028,-18.331328,-37.860326)"
       gradientUnits="userSpaceOnUse"
       y2="166.77607"
       x2="140.45489"
       y1="166.77607"
       x1="126.63755"
       id="linearGradient1036"
       xlink:href="#linearGradient1034"
       inkscape:collect="always" />
    <linearGradient
       gradientTransform="matrix(1.1114487,0,0,1.2517028,-18.331328,-37.860326)"
       gradientUnits="userSpaceOnUse"
       y2="115.74156"
       x2="191.826"
       y1="115.74156"
       x1="158.37294"
       id="linearGradient1052"
       xlink:href="#linearGradient1050"
       inkscape:collect="always" />
    <linearGradient
       gradientTransform="matrix(1.1114487,0,0,1.2517028,-18.331328,-37.860326)"
       gradientUnits="userSpaceOnUse"
       y2="176.26017"
       x2="186.29394"
       y1="176.26017"
       x1="156.7768"
       id="linearGradient1060"
       xlink:href="#linearGradient1058"
       inkscape:collect="always" />
    <linearGradient
       gradientTransform="matrix(1.1114487,0,0,1.2517028,-18.331328,-37.860326)"
       gradientUnits="userSpaceOnUse"
       y2="124.13036"
       x2="96.730152"
       y1="124.13036"
       x1="68.345724"
       id="linearGradient1068"
       xlink:href="#linearGradient1066"
       inkscape:collect="always" />
    <linearGradient
       gradientTransform="matrix(1.1114487,0,0,1.2517028,-18.331328,-37.860326)"
       gradientUnits="userSpaceOnUse"
       y2="181.90215"
       x2="101.2493"
       y1="181.90215"
       x1="76.076013"
       id="linearGradient1076"
       xlink:href="#linearGradient1074"
       inkscape:collect="always" />
    <linearGradient
       gradientTransform="matrix(1.1114487,0,0,1.2517028,-18.331328,-37.860326)"
       gradientUnits="userSpaceOnUse"
       y2="85.64066"
       x2="139.52479"
       y1="85.64066"
       x1="116.4117"
       id="linearGradient1084"
       xlink:href="#linearGradient1082"
       inkscape:collect="always" />
    <linearGradient
       gradientTransform="matrix(1.1114487,0,0,1.2517028,-18.331328,-37.860326)"
       gradientUnits="userSpaceOnUse"
       y2="67.802512"
       x2="123.89927"
       y1="67.802512"
       x1="94.681351"
       id="linearGradient1092"
       xlink:href="#linearGradient1090"
       inkscape:collect="always" />
    <linearGradient
       gradientUnits="userSpaceOnUse"
       y2="145.06322"
       x2="42.415245"
       y1="145.06322"
       x1="15.002059"
       id="linearGradient1100"
       xlink:href="#linearGradient1098"
       inkscape:collect="always" />
    <linearGradient
       gradientUnits="userSpaceOnUse"
       y2="211.15107"
       x2="57.718915"
       y1="211.15107"
       x1="28.206788"
       id="linearGradient1108"
       xlink:href="#linearGradient1106"
       inkscape:collect="always" />
  </defs>
  <sodipodi:namedview
     inkscape:window-maximized="1"
     inkscape:window-y="1609"
     inkscape:window-x="-11"
     inkscape:window-height="986"
     inkscape:window-width="1920"
     showgrid="false"
     inkscape:document-rotation="0"
     inkscape:current-layer="layer1"
     inkscape:document-units="mm"
     inkscape:cy="576.63275"
     inkscape:cx="128.245"
     inkscape:zoom="0.65312309"
     inkscape:pageshadow="2"
     inkscape:pageopacity="0.0"
     borderopacity="1.0"
     bordercolor="#666666"
     pagecolor="#ffffff"
     id="base" />
  <metadata
     id="metadata24">
    <rdf:RDF>
      <cc:Work
         rdf:about="">
        <dc:format>image/svg+xml</dc:format>
        <dc:type
           rdf:resource="http://purl.org/dc/dcmitype/StillImage" />
      </cc:Work>
    </rdf:RDF>
  </metadata>
  <g
     id="layer1"
     inkscape:groupmode="layer"
     inkscape:label="Layer 1">
    <path
       d="m 49.042968,247.6231 c 2.998548,-0.34532 6.016606,-0.40335 9.028006,-0.47144 4.620586,-0.0168 9.217884,0.67191 13.785802,1.38866 5.907822,0.94492 11.852889,1.48183 17.811132,1.78319 6.015181,0.24176 12.035362,0.32203 18.053712,0.23422 5.63678,-0.13294 11.27107,-0.40618 16.90072,-0.74845 4.33756,-0.25871 8.67258,-0.56004 13.00871,-0.84644 2.97989,-0.2598 5.95672,-0.55189 8.94248,-0.71229 1.7858,-0.0553 3.57613,-0.165 5.36182,-0.0622 0.70751,0.11929 1.42054,0.12154 2.13366,0.12179 0,0 5.01469,-4.10975 5.01469,-4.10975 v 0 c -0.69929,0.0124 -1.40491,0.0678 -2.09682,-0.0824 -1.81007,-0.19074 -3.63943,0.003 -5.45353,0.0329 -3.01596,0.16677 -6.0222,0.47116 -9.02933,0.77492 -4.36232,0.29422 -8.72329,0.61068 -13.0852,0.91197 -5.62971,0.37628 -11.26631,0.62286 -16.90405,0.78402 -6.01798,0.14274 -12.03993,0.0147 -18.056056,-0.18158 -5.931187,-0.29645 -11.85097,-0.79675 -17.728652,-1.77141 -4.563237,-0.72857 -9.145898,-1.50313 -13.764116,-1.53597 -2.973464,0.0412 -5.947701,0.0998 -8.916415,0.30729 0,0 -5.006563,4.18298 -5.006563,4.18298 z"
       id="path29"
       style="fill:#47802b;stroke-width:0.312073" />
    <path
       d="m 103.61108,61.689496 c -3.47446,1.491761 -5.846501,3.043367 -7.255902,6.65927 -0.464283,1.495933 -0.612417,2.996753 -0.110256,4.491167 0.804196,1.463675 2.222938,1.597039 3.615176,1.741183 1.518342,0.07043 3.050322,0.226078 4.555962,-0.06265 2.56747,-0.704052 5.49361,-2.341948 7.24268,-4.370035 0.77639,-1.038315 1.2837,-2.198453 1.51405,-3.524153 0.24903,-1.301402 0.0933,-2.431544 -0.54855,-3.539343 -0.78792,-1.10777 -1.88825,-1.557822 -3.08056,-1.833774 -1.0082,-0.192102 -2.03277,-0.201564 -3.05228,-0.206373 -0.87892,-0.01312 -1.74078,-0.03673 -2.59473,0.213311 0,0 -3.51023,3.083947 -3.51023,3.083947 v 0 c 0.83104,-0.434537 1.59879,-0.353537 2.49718,-0.345464 1.0051,-0.0042 2.01401,-0.01389 3.01334,0.126343 1.09268,0.196409 2.13681,0.499598 2.88,1.497321 0.58764,0.996419 0.63144,2.022675 0.38497,3.180187 -0.28522,1.234777 -0.8126,2.331731 -1.61494,3.246846 -1.43695,1.357618 -0.70322,0.608045 2.81051,-1.635278 0.19131,-0.122142 -0.38162,0.246804 -0.57849,0.357151 -0.28887,0.1619 -0.86337,0.437646 -1.17659,0.544905 -0.21214,0.07264 -0.43109,0.11716 -0.64663,0.175735 -1.4658,0.440134 -2.99428,0.227589 -4.4951,0.195803 -1.19209,-0.09732 -2.56738,-0.06203 -3.3232,-1.278756 -0.442109,-1.380515 -0.218986,-2.783898 0.25038,-4.129442 0.36772,-0.84875 0.75532,-1.644297 1.34451,-2.332674 0.21685,-0.253365 0.98452,-0.848283 0.7005,-0.70155 -0.81915,0.423205 -4.626162,2.846864 -2.3403,1.524789 0,0 3.51852,-3.078468 3.51852,-3.078468 z"
       id="path47"
       style="fill:#fdac07;fill-opacity:1;stroke-width:0.312073" />
    <path
       d="m 99.275868,62.398478 c -1.46029,-1.165949 -2.998433,-2.15342 -4.608386,-3.030043 -1.423735,-0.732923 -2.883589,-1.369368 -4.393487,-1.836241 -1.952938,-0.44915 -3.961666,-0.46134 -5.94752,-0.503622 -1.630427,-0.07706 -3.177026,0.404988 -4.730914,0.877133 -2.700531,1.000831 -5.231563,2.758275 -7.025267,5.248034 -0.828643,1.207648 -0.940781,2.607842 -1.003986,4.075504 -0.04634,1.854487 -0.04137,3.710079 -0.0395,5.565143 0.06282,1.580682 0.632615,3.007305 1.430853,4.282098 0.971232,1.498101 2.28534,2.649502 3.717409,3.537564 1.603856,0.891295 3.33451,1.438856 5.085138,1.815997 1.911392,0.441947 3.501688,0.203215 5.348141,-0.419626 2.733606,-0.968674 5.40788,-2.465958 7.501093,-4.696948 0.921575,-1.142858 1.948991,-2.156564 2.954558,-3.202648 0,0 -4.08537,1.882336 -4.08537,1.882336 v 0 c -1.02025,1.04493 -2.024723,2.101489 -2.987793,3.213255 -1.218833,1.174953 -3.477953,2.55537 2.333097,-1.253467 0.211607,-0.138696 -0.433978,0.256214 -0.65745,0.368853 -0.612165,0.308563 -0.921032,0.403139 -1.566594,0.645104 -0.432557,0.159558 -1.392484,0.528531 -1.83541,0.631178 -1.118254,0.25916 -2.258955,0.150423 -3.377906,-0.02542 -1.7239,-0.327769 -3.424749,-0.843864 -5.010973,-1.685638 -1.399435,-0.807815 -2.656756,-1.916111 -3.591127,-3.355419 -0.765693,-1.183324 -1.270665,-2.527653 -1.301575,-4.01036 -0.01597,-1.842583 -0.03807,-3.686819 0.0426,-5.528005 0.09959,-1.398618 0.284727,-2.693601 1.132995,-3.790699 0.431215,-0.546163 0.469644,-0.622451 0.959954,-1.126763 0.17583,-0.18085 0.755806,-0.642289 0.542119,-0.523947 -6.232706,3.451886 -3.466186,2.125604 -2.084394,1.394847 1.543677,-0.460683 3.0574,-1.04012 4.679572,-1.006467 1.957424,0.03034 3.932074,0.03752 5.865032,0.423084 1.502182,0.420882 2.941793,1.057092 4.361371,1.747071 1.599536,0.846989 3.139295,1.794855 4.548271,3.006431 0,0 3.745446,-2.718316 3.745446,-2.718316 z"
       id="path49"
       style="fill:#fdac07;fill-opacity:1;stroke-width:0.312073" />
    <path
       d="m 115.19214,60.235023 c 0.23023,-0.18368 0.46143,-0.365834 0.6907,-0.551036 0.54426,-0.439658 1.07059,-0.907201 1.61786,-1.342088 0.29068,-0.230992 1.19997,-0.85941 0.88806,-0.666699 -5.47833,3.384793 -3.12196,2.031382 -1.96768,1.381659 1.54184,-0.896736 3.21018,-1.308578 4.91897,-1.527156 1.56768,-0.23379 3.0778,0.09946 4.48413,0.878497 1.12665,0.886741 1.99422,2.169563 2.78878,3.418996 0.85258,1.328383 1.62557,2.714776 2.48343,4.038944 0.7522,0.999683 1.29562,2.098395 1.53641,3.378755 0.18468,1.787758 0.22677,3.604964 0.10794,5.399692 -0.4708,1.9065 -1.41045,3.625554 -2.56172,5.104293 -0.19026,0.193981 -0.37291,0.397905 -0.57078,0.581962 -0.21532,0.200279 -0.43478,0.396398 -0.66767,0.56997 -0.24119,0.17978 -1.00155,0.652248 -0.75178,0.488009 5.42539,-3.567504 2.92665,-1.838595 1.10144,-1.088775 -1.76574,0.639781 -3.36354,1.055209 -5.20979,0.722078 -1.48977,-0.340777 -2.55782,-1.326806 -3.50941,-2.59675 -0.88009,-1.223843 -1.54564,-2.615455 -2.33285,-3.913426 -0.66934,-1.12534 -1.58849,-1.85373 -2.62308,-2.485338 0,0 -3.73487,2.746674 -3.73487,2.746674 v 0 c 0.97799,0.601364 1.9001,1.171744 2.52827,2.27126 0.79051,1.31505 1.48156,2.706325 2.36072,3.950539 0.99304,1.366777 2.11945,2.449844 3.68594,2.879316 0.63244,0.152107 1.07922,0.303045 1.73093,0.290705 1.23132,-0.02335 2.4469,-0.500553 3.62989,-0.818033 3.10044,-1.145558 6.09943,-2.971478 8.43599,-5.546479 1.12385,-1.590086 2.08748,-3.373321 2.44337,-5.390588 0.0816,-1.842083 0.0741,-3.709604 -0.14034,-5.53969 -0.27876,-1.336657 -0.84729,-2.500148 -1.63657,-3.550354 -0.85471,-1.324746 -1.63949,-2.700881 -2.49946,-4.021706 -0.82797,-1.321051 -1.71468,-2.676994 -2.88669,-3.632636 -1.432,-0.852419 -3.00366,-1.313306 -4.63406,-1.111833 -1.73568,0.18874 -3.44961,0.517037 -5.0275,1.404791 -3.15339,1.649301 -6.04489,3.791242 -8.81641,6.129657 0,0 4.13783,-1.85321 4.13783,-1.85321 z"
       id="path51"
       style="fill:url(#linearGradient1084);fill-opacity:1;stroke-width:0.312073" />
    <path
       d="m 99.14362,58.367295 c -1.714954,-0.872691 -3.399963,-1.854648 -4.954711,-3.053201 -1.32895,-1.256621 -2.204704,-2.527857 -2.811542,-4.360103 -0.460671,-1.904379 -0.669364,-3.90384 -0.475636,-5.867387 0.617535,-2.523373 1.974736,-4.28981 3.598641,-6.083222 1.056237,-0.983847 1.325234,-1.290802 2.489969,-2.142456 0.431508,-0.315519 1.744845,-1.225394 1.327987,-0.885806 -0.722093,0.588251 -1.693574,0.845938 -2.245924,1.633603 -0.340622,0.485747 1.025571,-0.44718 1.548216,-0.638637 0.495332,-0.18145 1.002365,-0.319535 1.503543,-0.4793 2.177297,-0.610281 4.128897,-1.030707 6.288507,-0.185491 1.53579,0.743785 2.80824,1.99101 3.99141,3.294565 1.34478,1.520926 2.71125,2.986397 3.84634,4.71647 1.03782,1.813659 1.76503,3.78227 2.14204,5.891666 0.25545,2.051447 -0.29707,3.9562 -1.04203,5.792396 -0.64843,1.282529 -1.62914,2.267656 -2.64217,3.174751 -0.83446,0.617427 -1.69088,1.155425 -2.40381,1.953059 0,0 4.12328,-1.898848 4.12328,-1.898848 v 0 c 0.75844,-0.714196 1.62294,-1.24463 2.40461,-1.923903 1.01142,-0.957954 1.97155,-2.023171 2.54711,-3.385077 0.72373,-1.92906 1.20486,-3.94986 0.90761,-6.060959 -0.40903,-2.174889 -1.17546,-4.193897 -2.24503,-6.06891 -1.12844,-1.771535 -2.51319,-3.246442 -3.86696,-4.79616 -1.2104,-1.364067 -2.53009,-2.645289 -4.09201,-3.469978 -0.27517,-0.125799 -0.54112,-0.281065 -0.8255,-0.377396 -1.86137,-0.630478 -3.84114,-0.08727 -5.67744,0.353779 -0.7321,0.218724 -2.42799,0.683508 -3.101242,1.058498 -3.1909,1.77729 -6.37057,3.629479 -9.020848,6.330839 -1.603932,1.855079 -3.03137,3.808413 -3.510852,6.413308 -0.141782,2.041716 0.05223,4.100964 0.566452,6.069182 0.660915,1.952803 1.545076,3.251386 2.939801,4.624344 1.56521,1.236886 3.304122,2.161133 4.993807,3.159234 0,0 3.696382,-2.78886 3.696382,-2.78886 z"
       id="path53"
       style="fill:url(#linearGradient1092);fill-opacity:1;stroke-width:0.312073" />
    <path
       d="m 88.711513,83.125752 c 0.24249,2.14957 0.21493,4.322902 0.410534,6.475339 0.06797,0.75996 0.16917,1.506922 0.318467,2.251075 0,0 3.917586,-2.370821 3.917586,-2.370821 v 0 c -0.140038,-0.723673 -0.24151,-1.451202 -0.313321,-2.188052 -0.194434,-2.154331 -0.209543,-4.325345 -0.38866,-6.482011 0,0 -3.944606,2.31447 -3.944606,2.31447 z"
       id="path57"
       style="fill:#fdac07;fill-opacity:1;stroke-width:0.312073" />
    <path
       d="m 91.212431,93.971256 c 1.916657,0.186354 3.836151,0.3169 5.758703,0.389736 1.853932,0.04572 3.663276,-0.255593 5.458856,-0.738359 2.23237,-0.713642 4.52001,-1.156713 6.79672,-1.644513 1.42078,-0.242092 0.71547,-0.135848 2.11578,-0.32026 0,0 3.53518,-2.961299 3.53518,-2.961299 v 0 c -1.41206,0.171968 -0.70129,0.07598 -2.13223,0.288735 -2.28229,0.474516 -4.57226,0.93854 -6.81291,1.627023 -1.77509,0.482232 -3.54545,0.859197 -5.38341,0.840483 -1.907912,-0.06357 -3.815541,-0.165955 -5.714736,-0.388987 0,0 -3.621953,2.907441 -3.621953,2.907441 z"
       id="path59"
       style="fill:#fdac07;fill-opacity:1;stroke-width:0.312073" />
    <path
       d="m 114.37468,82.054243 c 0.18659,1.813386 0.28388,3.63629 0.34767,5.459747 0.008,1.113856 0.10073,2.233208 -0.0241,3.340774 0,0 3.98882,-2.233493 3.98882,-2.233493 v 0 c 0.0728,-1.129947 0.007,-2.262338 -0.0214,-3.393695 -0.0736,-1.834583 -0.20848,-3.664445 -0.3438,-5.494376 0,0 -3.94713,2.321043 -3.94713,2.321043 z"
       id="path61"
       style="fill:#fdac07;fill-opacity:1;stroke-width:0.312073" />
    <ellipse
       ry="0.044676106"
       rx="0.039670125"
       cy="238.4933"
       cx="65.415771"
       style="fill:#47802b;stroke:#000000;stroke-width:0.312073"
       id="path67" />
    <path
       d="m 52.088801,225.02634 c 0.0072,-4.46385 -0.373497,-8.91207 -0.872861,-13.33588 -0.747123,-6.59868 -2.271736,-13.04232 -3.888484,-19.42685 -1.754923,-6.83128 -4.474173,-13.26383 -6.969698,-19.77448 -3.013574,-7.53125 -5.387898,-15.34198 -7.528186,-23.23293 -1.100004,-4.49097 -2.163756,-9.03647 -2.58503,-13.68574 -0.298972,-3.29956 -0.201338,-4.17181 -0.161035,-7.5116 0.249486,-6.98009 1.636012,-13.71794 3.362934,-20.39174 0.994101,-3.84107 2.401847,-7.56382 4.3932,-10.89111 0.393738,-0.657903 0.830147,-1.282085 1.245222,-1.923117 2.757252,-3.974121 5.929091,-7.547332 9.079451,-11.120324 2.354956,-2.537139 4.782896,-5.007177 7.383447,-7.223355 0.588845,-0.449506 1.128626,-0.975117 1.711188,-1.434197 0.266323,-0.209873 1.100796,-0.778006 0.816939,-0.599655 -5.898948,3.706412 -2.400004,1.605209 -1.086075,0.83283 1.397525,-0.862905 2.86652,-1.51564 4.419919,-1.908551 0.891933,-0.161299 0.419964,-0.07934 1.41624,-0.243448 0,0 3.546725,-2.989536 3.546725,-2.989536 v 0 c -0.99013,0.15549 -0.515691,0.08651 -1.423007,0.209621 -1.588374,0.343682 -3.098181,0.944911 -4.520478,1.821852 -3.098029,1.829718 -6.23306,3.643403 -8.955563,6.141921 -2.554953,2.244453 -4.966962,4.697067 -7.281882,7.248634 -3.144226,3.597472 -6.334038,7.171321 -9.059035,11.192026 -0.415125,0.654908 -0.852762,1.292434 -1.245377,1.964715 -1.963007,3.361284 -3.328754,7.115994 -4.287407,10.978454 -1.680253,6.69178 -3.02437,13.49069 -3.250821,20.47104 -0.03508,3.24664 -0.13096,4.38267 0.16022,7.59612 0.422971,4.66787 1.521839,9.22819 2.651533,13.72747 2.156029,7.90272 4.577094,15.70614 7.568927,23.26455 2.44324,6.51844 5.115878,12.95628 6.871975,19.76814 1.627262,6.36042 3.158988,12.77894 3.839912,19.37055 0.462334,4.43703 0.843639,8.90597 0.683831,13.3788 0,0 3.963276,-2.27421 3.963276,-2.27421 z"
       id="path71"
       style="fill:url(#linearGradient1020);fill-opacity:1;stroke-width:0.312073" />
    <path
       d="m 166.45313,220.4627 c -0.01,-4.40493 0.62647,-8.78814 1.11913,-13.15054 0.82232,-6.63923 2.04433,-13.20083 3.34224,-19.73904 1.47442,-7.04372 2.8879,-14.10566 4.21993,-21.18542 1.43926,-7.08335 2.38822,-14.27205 3.27141,-21.46466 0.74813,-6.40943 0.9285,-12.87102 0.86618,-19.32704 -0.14839,-4.09063 -0.3129,-8.19646 -0.78961,-12.25912 -0.31984,-2.72582 -0.48258,-3.43552 -0.95356,-6.13843 -0.79799,-5.23851 -2.2798,-10.287183 -4.15204,-15.152825 -1.51231,-3.971697 -3.54315,-7.610638 -5.87316,-11.027372 -2.00938,-3.011539 -4.37654,-5.687412 -6.73187,-8.351378 -2.3533,-2.539304 -4.84922,-4.881095 -7.54091,-6.94993 -1.90042,-1.395697 -3.9896,-2.369015 -6.09098,-3.298718 -1.51404,-0.722891 -3.10106,-1.187425 -4.71085,-1.53845 0,0 -3.62629,2.856378 -3.62629,2.856378 v 0 c 1.59896,0.305775 3.17914,0.72541 4.67534,1.449291 2.0831,0.914696 4.16834,1.832154 6.06624,3.188478 2.70309,2.001702 5.18677,4.321871 7.50932,6.858239 2.34818,2.646164 4.71941,5.289547 6.72608,8.281671 2.31021,3.381297 4.33311,6.982395 5.84159,10.910139 1.87082,4.826126 3.34105,9.831657 4.16061,15.027837 1.03802,6.04444 1.61252,12.16114 1.70522,18.32143 0.053,6.43081 -0.1157,12.86566 -0.86675,19.24987 -0.85289,7.18477 -1.84617,14.35376 -3.27314,21.42617 -1.34458,7.07151 -2.75049,14.12896 -4.2066,21.17239 -1.31524,6.56682 -2.57205,13.15401 -3.40686,19.82412 -0.50616,4.41483 -1.12272,8.83757 -1.24394,13.29112 0,0 3.96327,-2.27421 3.96327,-2.27421 z"
       id="path75"
       style="fill:#47802b;fill-opacity:1;stroke-width:0.312073" />
    <path
       d="m 84.940586,106.85031 c -1.538875,3.45953 -2.628475,7.13783 -3.613845,10.83506 -1.269824,4.73593 -2.243442,9.55885 -3.014389,14.42671 -0.535354,3.97102 -0.53713,8.02508 -0.359773,12.03014 0.320667,4.42399 1.125283,8.77421 1.964773,13.10261 1.017693,5.01603 2.029593,10.03324 3.093071,15.03722 1.170432,5.43391 2.235627,10.89206 3.114986,16.39521 0.863251,5.86955 1.210028,11.81729 1.519894,17.75084 0.114508,4.25392 -0.011,8.5099 -0.08983,12.76325 0.03841,2.89281 -0.190952,5.77066 -0.374288,8.65212 -0.05982,0.91709 -0.101581,1.83539 -0.139995,2.75389 0,0 2.773637,-1.57422 2.773637,-1.57422 v 0 c 0.03358,-0.91236 0.07005,-1.82463 0.125595,-2.73573 0.174984,-2.87987 0.368455,-5.75788 0.331672,-8.64759 0.06481,-4.25286 0.190466,-8.50926 0.03354,-12.76134 -0.333,-5.9407 -0.676564,-11.89789 -1.556782,-17.77349 -0.880769,-5.51309 -1.903476,-10.9897 -3.093851,-16.42933 -1.055567,-5.00389 -2.079604,-10.01551 -3.089773,-15.03122 -0.822974,-4.32009 -1.605777,-8.66243 -1.901864,-13.07671 -0.171988,-3.98087 -0.18969,-8.00565 0.371641,-11.95053 0.765413,-4.85409 1.721586,-9.66442 3.010188,-14.37974 1.009781,-3.70595 2.122798,-7.40019 3.738704,-10.83588 0,0 -2.843315,1.44873 -2.843315,1.44873 z"
       id="path83"
       style="fill:#47802b;stroke-width:0.312073" />
    <path
       d="m 122.41986,114.6155 c 1.83359,3.22388 3.54377,6.53176 5.32337,9.79275 1.50469,2.81897 3.02377,5.64819 4.1267,8.70458 0.87351,2.42058 1.10584,3.48389 1.78134,5.98298 1.20316,5.15224 1.64289,10.51644 1.43466,15.83595 -0.0436,1.11165 -0.14547,2.21943 -0.21821,3.32916 -0.57264,6.5048 -1.65634,12.93484 -2.75093,19.34866 -1.11785,6.21751 -2.03031,12.47993 -2.83389,18.75788 -0.67218,4.34314 -0.99836,8.7322 -1.19756,13.13022 -0.12352,3.22498 -0.11534,6.45371 -0.10849,9.6809 0.01,2.52985 -0.0738,5.05766 0.12683,7.57974 0.0682,0.72649 0.13341,1.45319 0.19314,2.18062 0,0 2.76149,-1.62265 2.76149,-1.62265 v 0 c -0.0651,-0.72395 -0.13581,-1.44716 -0.20691,-2.1704 -0.20768,-2.50384 -0.12979,-5.0171 -0.15277,-7.52925 0.005,-3.22081 -0.002,-6.44281 0.10783,-9.66184 0.17723,-4.38014 0.52484,-8.74632 1.16249,-13.07509 0.78559,-6.27058 1.68511,-12.52334 2.81334,-18.72854 1.09691,-6.424 2.1778,-12.86414 2.73294,-19.38218 0.0718,-1.11662 0.1726,-2.23138 0.21535,-3.34988 0.20454,-5.35349 -0.26211,-10.74612 -1.47382,-15.9295 -0.62758,-2.31499 -0.97858,-3.78454 -1.77768,-6.03448 -1.09291,-3.07719 -2.61083,-5.92587 -4.12217,-8.75731 -1.78148,-3.25919 -3.50317,-6.56101 -5.24136,-9.84931 0,0 -2.69574,1.76699 -2.69574,1.76699 z"
       id="path91"
       style="fill:url(#linearGradient1036);fill-opacity:1;stroke-width:0.312073" />
    <path
       d="m 57.718915,208.69373 c -3.959539,0.16795 -7.911463,-0.30938 -11.853399,-0.66678 -2.169802,-0.25537 -4.331055,-0.3661 -6.50557,-0.16327 -1.378163,0.14632 -2.74371,0.38808 -4.104987,0.66538 0,0 -7.048171,5.99156 -7.048171,5.99156 v 0 c 1.361016,-0.28909 2.716482,-0.6032 4.096568,-0.76184 2.158139,-0.28383 4.310492,-0.18796 6.476186,-0.0184 3.930227,0.26366 7.856312,0.64173 11.790268,0.8031 0,0 7.149105,-5.84958 7.149105,-5.84958 z"
       id="path107"
       style="fill:url(#linearGradient1108);stroke-width:0.312073;fill-opacity:1" />
    <path
       d="m 54.608337,182.79155 c -1.843854,-0.12523 -3.674891,-0.40544 -5.501441,-0.70755 -2.986654,-0.54671 -5.972722,-1.09762 -8.954379,-1.6781 -3.391565,-0.73253 -6.764264,-1.57663 -10.110768,-2.53614 -2.200288,-0.58632 -4.257607,-1.6521 -6.37957,-2.50095 0,0 -7.330814,5.60766 -7.330814,5.60766 v 0 c 2.201976,0.74477 4.293501,1.85586 6.535844,2.45996 3.380805,0.97867 6.789363,1.81876 10.221619,2.53675 2.931636,0.61055 5.859404,1.24972 8.795983,1.8264 1.80708,0.34773 3.630268,0.59241 5.453252,0.80336 0,0 7.270274,-5.81139 7.270274,-5.81139 z"
       id="path109"
       style="fill:#47802b;stroke-width:0.312073" />
    <path
       d="m 42.415245,146.26106 c -2.265384,-0.43401 -4.514725,-0.96436 -6.742541,-1.59757 -1.434869,-0.39867 -2.889478,-0.61778 -4.212329,-1.391 -0.956018,-0.66622 -1.98556,-1.1774 -3.002266,-1.71146 -1.118228,-0.40924 -2.203228,-0.90505 -3.271893,-1.45573 -1.029062,-0.40034 -1.817293,-1.22648 -2.6537,-1.97278 0,0 -7.530457,5.34414 -7.530457,5.34414 v 0 c 0.897704,0.76821 1.687299,1.72692 2.768653,2.17642 1.075567,0.52622 2.125,1.14969 3.271641,1.46305 1.015017,0.46836 2.011079,1.01434 2.968251,1.61944 1.36627,0.92178 2.848734,1.27247 4.407977,1.56849 2.224471,0.59623 4.462854,1.11517 6.691184,1.68986 0,0 7.30548,-5.73286 7.30548,-5.73286 z"
       id="path111"
       style="fill:url(#linearGradient1100);stroke-width:0.312073;fill-opacity:1" />
    <path
       d="m 42.053132,105.17682 c -1.863407,-0.71005 -3.686022,-1.56436 -5.477319,-2.47888 -1.12175,-0.50856 -2.129516,-1.23866 -3.086422,-2.06018 -0.888132,-0.741111 -1.784783,-1.466362 -2.763945,-2.046621 -1.280432,-0.818418 -2.571658,-1.618949 -3.815863,-2.506184 -0.769355,-0.468111 -1.414977,-1.104483 -2.061827,-1.75474 0,0 -7.569904,5.308073 -7.569904,5.308073 v 0 c 0.696818,0.659272 1.322699,1.412012 2.162844,1.855492 1.251072,0.90772 2.576922,1.6806 3.83609,2.5759 0.923174,0.58353 1.838276,1.17016 2.671289,1.91414 0.995267,0.90253 2.067657,1.69781 3.267779,2.21351 1.802109,0.91829 3.651718,1.7183 5.463235,2.61405 0,0 7.374043,-5.63456 7.374043,-5.63456 z"
       id="path113"
       style="fill:#47802b;stroke-width:0.312073" />
    <path
       d="m 60.338989,82.307875 c -3.301483,-1.048605 -6.541258,-2.314951 -9.770976,-3.611594 -2.251891,-0.961844 -4.412747,-2.170384 -6.40699,-3.69126 -1.257691,-0.997365 -2.467548,-2.064071 -3.727084,-3.059058 -0.984398,-0.726926 -1.922358,-1.524099 -2.811237,-2.392617 0,0 -7.539584,5.283903 -7.539584,5.283903 v 0 c 0.910532,0.896789 1.868503,1.72793 2.862253,2.504456 1.303616,0.942194 2.502431,2.037059 3.784179,3.013744 2.066112,1.574398 4.285276,2.854068 6.624578,3.837298 3.215757,1.231304 6.447796,2.41151 9.636723,3.7299 0,0 7.348138,-5.614772 7.348138,-5.614772 z"
       id="path117"
       style="fill:#47802b;stroke-width:0.312073" />
    <path
       d="m 152.9322,85.196701 c 1.7903,-0.504938 3.53513,-1.014695 5.1735,-1.987804 21.65713,-14.191857 1.97683,-1.323535 1.48022,-0.997233 -0.24735,0.162524 0.49992,-0.314703 0.75087,-0.470053 0.67444,-0.417487 1.35428,-0.823169 2.03613,-1.224996 2.80934,-2.806757 6.71619,-3.741214 9.54133,-6.495984 0.62196,-0.606467 1.20861,-1.250834 1.83561,-1.851141 1.21391,-1.238401 2.2325,-2.698968 3.46743,-3.922585 0.95175,-0.978304 2.00069,-1.815557 2.91554,-2.835821 0.90282,-0.718449 1.78177,-1.458648 2.63223,-2.25945 0,0 -8.22105,3.722203 -8.22105,3.722203 v 0 c -0.881,0.778981 -1.82633,1.466348 -2.64064,2.336521 -0.96048,0.942937 -1.96663,1.828075 -2.88499,2.82569 -1.15643,1.297062 -2.21922,2.704072 -3.47308,3.886078 -0.60691,0.608965 -1.20235,1.240803 -1.85194,1.792995 -2.46778,2.097774 -7.24516,4.341932 5.59222,-3.463688 -0.93221,0.579532 -1.89871,1.093834 -2.82203,1.690866 -0.50051,0.32364 -19.32571,12.593177 -1.48074,1.010626 -0.27009,0.181357 -1.22493,0.832362 -1.51682,0.989822 -1.10127,0.594085 -2.31013,0.816201 -3.48769,1.127542 0,0 -7.0461,6.126412 -7.0461,6.126412 z"
       id="path119"
       style="fill:#47802b;stroke-width:0.312073" />
    <path
       d="m 157.69206,108.6228 c 1.90993,0.39752 3.8021,0.8777 5.72962,1.15775 1.64213,0.1673 3.28452,0.27298 4.92081,0.50624 1.64357,0.19576 3.29343,0.33739 4.94173,0.48011 1.89551,0.14581 3.79274,0.26815 5.69213,0.32405 1.19283,0.0268 2.38631,0.0518 3.57921,0.0208 0.88101,-0.12368 1.7535,-0.30149 2.63627,-0.41357 0.97708,-0.16246 1.8855,-0.46941 2.74778,-1.01048 0,0 6.93382,-6.30309 6.93382,-6.30309 v 0 c -0.8359,0.5233 -1.5708,1.16108 -2.56519,1.24892 -0.843,0.27773 -1.75277,0.1955 -2.59963,0.49298 -1.16053,0.26027 -2.36969,0.0377 -3.54661,0.10815 -1.90703,-0.0243 -3.81465,-0.0716 -5.7173,-0.2291 -1.62109,-0.15097 -3.23249,-0.37948 -4.85568,-0.49753 -1.6552,-0.22032 -3.30345,-0.4028 -4.97067,-0.47209 -1.89247,-0.226 -3.75271,-0.63164 -5.60204,-1.13464 0,0 -7.32425,5.72157 -7.32425,5.72157 z"
       id="path121"
       style="fill:url(#linearGradient1052);fill-opacity:1;stroke-width:0.312073" />
    <path
       d="m 164.5091,142.09514 c 1.98136,0.5051 3.97178,0.96336 5.95794,1.44443 1.80286,0.45522 3.61026,0.89358 5.40513,1.38817 1.60353,0.45736 3.17889,1.02426 4.78144,1.48537 1.25286,0.44214 2.49822,0.86341 3.801,1.06477 1.27349,0.16499 2.55693,0.15131 3.83657,0.15477 0.89547,0.003 0.45458,8.4e-4 1.32267,0.003 0,0 7.18845,-5.88441 7.18845,-5.88441 v 0 c -0.87412,0.005 -0.4307,0.004 -1.33024,0.008 -1.25533,-3.3e-4 -2.51215,0.005 -3.76577,-0.078 -1.29764,-0.12055 -2.54923,-0.43822 -3.77946,-0.92614 -1.61131,-0.41581 -3.16916,-1.02126 -4.76459,-1.50305 -1.81653,-0.47498 -3.63872,-0.91788 -5.46058,-1.3653 -1.96358,-0.50029 -3.95788,-0.86839 -5.88709,-1.52395 0,0 -7.30547,5.73287 -7.30547,5.73287 z"
       id="path125"
       style="fill:#47802b;stroke-width:0.312073" />
    <path
       d="m 155.91804,185.17476 c 1.86158,0.088 3.70324,0.38786 5.54676,0.671 1.51117,0.23 3.03639,0.27352 4.55888,0.30153 1.4516,0.0203 2.90344,0.0237 4.35513,0.0143 1.47728,-0.005 2.95461,0.026 4.43096,-0.0407 1.30116,-0.11742 2.5982,-0.28093 3.90089,-0.37711 0.9313,-0.0635 1.86445,-0.0726 2.79714,-0.0778 0,0 7.21702,-5.90823 7.21702,-5.90823 v 0 c -0.94635,1.2e-4 -1.8931,-8.3e-4 -2.83883,0.0431 -1.31977,0.0752 -2.63335,0.22777 -3.94553,0.4023 -1.45789,0.15852 -2.92552,0.0524 -4.38888,0.0879 -1.4504,-0.005 -2.90082,0.008 -4.35124,-7e-5 -1.50262,-0.016 -3.00794,-0.0341 -4.50409,-0.2091 -1.83701,-0.23484 -3.66389,-0.55886 -5.50794,-0.71862 0,0 -7.27027,5.81138 -7.27027,5.81138 z"
       id="path127"
       style="fill:url(#linearGradient1060);fill-opacity:1;stroke-width:0.312073" />
    <path
       d="m 152.26412,213.09656 c 1.92096,0.46863 3.81462,1.07779 5.74239,1.5094 1.50241,0.34117 3.0042,0.66891 4.52958,0.84494 1.20832,0.11792 2.42259,0.13482 3.63475,0.13112 1.37643,-0.0198 2.7535,0.0216 4.12934,-0.0315 1.20567,-0.16039 2.41719,-0.28658 3.61654,-0.50074 1.17787,-0.19588 2.33438,-0.51529 3.50051,-0.78093 0.1819,-0.0519 0.3638,-0.10388 0.54571,-0.15588 0,0 7.07653,-6.08152 7.07653,-6.08152 v 0 c -0.18311,0.0463 -0.36623,0.093 -0.54933,0.13951 -1.12435,0.39655 -2.32132,0.5773 -3.47064,0.85597 -1.18762,0.24909 -2.37988,0.36222 -3.57386,0.57056 -1.34939,0.21502 -2.72384,0.0541 -4.08329,0.10226 -1.19814,-0.008 -2.3972,0.0101 -3.59422,-0.0622 -1.5218,-0.11241 -3.02848,-0.36139 -4.51748,-0.73769 -1.89527,-0.34977 -3.74457,-0.9436 -5.61249,-1.43769 0,0 -7.37404,5.63459 -7.37404,5.63459 z"
       id="path129"
       style="fill:#47802b;stroke-width:0.312073" />
    <path
       d="m 89.17927,118.36809 c -2.150261,-0.35091 -4.310533,-0.61056 -6.476013,-0.80539 -1.634746,-0.0982 -3.266481,-0.19608 -4.898628,-0.34259 -1.663631,-0.2074 -3.316715,-0.46396 -4.928853,-0.97724 -1.314808,-0.45644 -2.543983,-1.13811 -3.713555,-1.94438 -1.183985,-0.93285 -2.410992,-1.81586 -3.499233,-2.89035 -0.161863,-0.16309 -0.323726,-0.3262 -0.485591,-0.48931 0,0 -7.545962,5.28431 -7.545962,5.28431 v 0 c 0.163189,0.15804 0.326377,0.31608 0.489567,0.47412 1.107587,1.14014 2.372071,2.04174 3.589388,3.02413 1.214637,0.88973 2.468032,1.66033 3.848664,2.18386 1.662547,0.54319 3.338669,0.89657 5.061226,1.11345 1.633752,0.15297 3.258554,0.36824 4.900963,0.35832 2.132199,0.13 4.266205,0.32172 6.369455,0.7521 0,0 7.288572,-5.74103 7.288572,-5.74103 z"
       id="path131"
       style="fill:url(#linearGradient1068);fill-opacity:1;stroke-width:0.312073" />
    <path
       d="m 90.205332,156.40812 c -2.083437,-0.47467 -4.188156,-0.8052 -6.284066,-1.19653 -1.328137,-0.33617 -2.687341,-0.48259 -4.01713,-0.80241 -0.985037,-0.34218 -1.950778,-0.79668 -2.891581,-1.27581 -1.239917,-0.59956 -2.433752,-1.3018 -3.638811,-1.9825 -1.171498,-0.83616 -2.418233,-1.51291 -3.662541,-2.19769 -0.942701,-0.57426 -1.951774,-0.99279 -2.888371,-1.57896 -0.435496,-0.35921 -0.933022,-0.60641 -1.382553,-0.9375 0,0 -7.569859,5.38832 -7.569859,5.38832 v 0 c 0.445281,0.40681 1.008475,0.57106 1.44796,1.00063 0.927527,0.702 2.017338,1.02427 2.989451,1.63859 1.251727,0.64701 2.49924,1.31805 3.644836,2.18379 1.204718,0.68131 2.39411,1.39062 3.627876,2.00317 0.970407,0.57178 2.016213,0.94851 3.003342,1.47715 1.360782,0.35133 2.747012,0.48419 4.118625,0.78416 2.06069,0.4 4.148805,0.62266 6.178572,1.21717 0,0 7.32425,-5.72158 7.32425,-5.72158 z"
       id="path139"
       style="fill:#47802b;stroke-width:0.312073" />
    <path
       d="m 94.202073,187.87762 c -1.67003,0.0286 -3.340468,0.0228 -5.010687,0.0268 -1.766019,-0.005 -3.532052,-0.005 -5.298077,6.6e-4 -1.734264,0.0694 -3.444715,-0.0101 -5.157754,-0.30863 -1.529972,-0.36224 -3.071411,-0.75273 -4.520337,-1.42567 -0.198212,-0.0988 -0.396424,-0.19762 -0.594634,-0.29642 0,0 -7.39733,5.54439 -7.39733,5.54439 v 0 c 0.198263,0.0958 0.396527,0.19163 0.594791,0.28744 1.482755,0.7911 3.101086,1.16269 4.686277,1.60677 0.575394,0.11279 1.144835,0.26478 1.722766,0.35967 1.165691,0.19139 2.348265,0.0226 3.519918,0.0797 1.765579,0.005 3.531165,0.005 5.296733,6.5e-4 1.648374,0.004 3.29699,-0.003 4.945162,0.0268 0,0 7.213172,-5.902 7.213172,-5.902 z"
       id="path141"
       style="fill:url(#linearGradient1076);fill-opacity:1;stroke-width:0.312073" />
    <path
       d="m 119.44752,131.93234 c 1.79253,0.20875 3.59153,0.31251 5.39153,0.39405 1.56876,0.15358 3.12695,-0.0251 4.68698,-0.18792 1.50044,-0.24425 3.00292,-0.45846 4.50938,-0.65414 1.43253,-0.16706 2.80226,-0.70148 4.14208,-1.27145 1.31359,-0.5672 2.63937,-1.09216 3.94795,-1.67467 1.16418,-0.51146 2.34932,-0.95952 3.5241,-1.43942 0.65431,-0.27779 1.33561,-0.44717 2.02002,-0.59672 0,0 7.07262,-6.12246 7.07262,-6.12246 v 0 c -0.67378,0.27838 -1.39188,0.30727 -2.07497,0.56548 -1.19899,0.44346 -2.36888,0.97796 -3.56963,1.41493 -1.29519,0.6004 -2.60105,1.15447 -3.92033,1.67661 -1.32064,0.56692 -2.64122,1.23619 -4.04442,1.47499 -1.48965,0.26041 -3.00973,0.29352 -4.48183,0.69186 -1.54956,0.13647 -3.08943,0.43058 -4.64815,0.30211 -1.76489,-0.052 -3.53307,-0.12241 -5.28506,-0.38465 0,0 -7.27027,5.8114 -7.27027,5.8114 z"
       id="path159"
       style="fill:#47802b;stroke-width:0.312073" />
    <path
       d="m 124.85056,162.35658 c 1.84385,0.20908 3.69651,0.27889 5.54386,0.4306 1.55203,0.20731 3.10559,0.38011 4.66587,0.4834 1.29263,0.0809 2.58764,0.0734 3.88171,0.0772 1.54767,-0.0147 3.09349,0.039 4.63657,-0.11277 1.35822,-0.21344 2.70573,-0.50373 4.05966,-0.75047 1.30916,-0.35432 2.62209,-0.68989 3.93367,-1.03399 0.87816,-0.22873 1.76746,-0.39396 2.64949,-0.60178 0,0 7.07832,-6.03767 7.07832,-6.03767 v 0 c -0.89168,0.19506 -1.77395,0.41888 -2.67071,0.58372 -1.30215,0.33858 -2.61028,0.63874 -3.90089,1.02927 -1.31835,0.39468 -2.7065,0.46732 -4.02906,0.8632 -1.52208,0.18951 -3.03909,0.24094 -4.5718,0.18266 -1.28631,8.4e-4 -2.57288,-0.003 -3.85885,-0.0391 -1.56743,-0.0622 -3.13046,-0.19251 -4.68684,-0.41616 -1.81623,-0.21099 -3.64952,-0.18317 -5.46073,-0.46943 0,0 -7.27027,5.81138 -7.27027,5.81138 z"
       id="path161"
       style="fill:#47802b;stroke-width:0.312073" />
    <path
       d="m 119.02582,192.76547 c 2.01414,0.0571 4.00283,0.48958 6.00765,0.71002 1.77186,0.20346 3.55261,0.24672 5.33193,0.28357 1.36146,-0.0458 2.71026,0.12217 4.06154,0.27814 1.50202,0.19478 3.01505,0.19704 4.52469,0.21378 2.12014,0.0174 4.2402,0 6.36035,-0.004 1.31806,-0.0187 2.6322,-0.14464 3.94603,-0.25411 0,0 7.11815,-5.92355 7.11815,-5.92355 v 0 c -1.31778,0.12971 -2.63485,0.27241 -3.95554,0.36067 -2.10425,-0.003 -4.2084,-0.0112 -6.31263,-0.0225 -1.4837,-0.0159 -2.96941,-0.0296 -4.44894,-0.16908 -1.37278,-0.13919 -2.73607,-0.41913 -4.11838,-0.33773 -1.77985,-0.004 -3.56075,-0.0318 -5.33643,-0.18182 -2.00136,-0.18743 -3.97984,-0.52765 -5.96525,-0.85527 0,0 -7.21317,5.90201 -7.21317,5.90201 z"
       id="path163"
       style="fill:#47802b;stroke-width:0.312073" />
  </g>
</svg>
