<?xml version="1.0" encoding="UTF-8" standalone="no"?>
<svg
   xmlns:dc="http://purl.org/dc/elements/1.1/"
   xmlns:cc="http://creativecommons.org/ns#"
   xmlns:rdf="http://www.w3.org/1999/02/22-rdf-syntax-ns#"
   xmlns:svg="http://www.w3.org/2000/svg"
   xmlns="http://www.w3.org/2000/svg"
   xmlns:sodipodi="http://sodipodi.sourceforge.net/DTD/sodipodi-0.dtd"
   xmlns:inkscape="http://www.inkscape.org/namespaces/inkscape"
   sodipodi:docname="email.svg"
   inkscape:version="1.0 (4035a4fb49, 2020-05-01)"
   id="svg482"
   version="1.1"
   viewBox="0 0 210 297"
   height="297mm"
   width="210mm">
  <defs
     id="defs476" />
  <sodipodi:namedview
     inkscape:window-maximized="1"
     inkscape:window-y="1609"
     inkscape:window-x="-11"
     inkscape:window-height="986"
     inkscape:window-width="1920"
     showgrid="false"
     inkscape:document-rotation="0"
     inkscape:current-layer="layer1"
     inkscape:document-units="mm"
     inkscape:cy="532.24692"
     inkscape:cx="987.24198"
     inkscape:zoom="0.54115914"
     inkscape:pageshadow="2"
     inkscape:pageopacity="0.0"
     borderopacity="1.0"
     bordercolor="#666666"
     pagecolor="#ffffff"
     id="base" />
  <metadata
     id="metadata479">
    <rdf:RDF>
      <cc:Work
         rdf:about="">
        <dc:format>image/svg+xml</dc:format>
        <dc:type
           rdf:resource="http://purl.org/dc/dcmitype/StillImage" />
        <dc:title></dc:title>
      </cc:Work>
    </rdf:RDF>
  </metadata>
  <g
     id="layer1"
     inkscape:groupmode="layer"
     inkscape:label="Layer 1">
    <path
       d="m 191.92075,262.38673 c -5.03327,0.0313 -10.06669,0.017 -15.10006,0.0243 -6.00044,0.017 -12.00091,0.001 -18.00137,-10e-4 -4.42892,-0.26777 -8.78712,0.30182 -13.14854,1.00534 -6.84537,0.79981 -13.66798,1.62852 -20.4654,2.81923 -7.07981,1.46794 -14.21477,2.5117 -21.41578,3.01391 -7.450278,0.38054 -14.913301,0.34255 -22.370441,0.33441 -5.181168,-0.13603 -10.381476,0.17504 -15.555403,-0.1782 -5.554502,-0.59085 -11.107808,-1.16723 -16.675608,-1.60869 0,0 -5.421007,4.03139 -5.421007,4.03139 v 0 c 5.551122,0.42132 11.080901,1.02136 16.612078,1.65732 5.203746,0.43362 10.447127,0.005 15.66184,0.161 7.45787,-0.0118 14.921151,0.0483 22.373745,-0.28154 7.239996,-0.4707 14.414786,-1.49497 21.524506,-3.00905 6.75866,-1.20304 13.54199,-2.00752 20.3564,-2.74775 4.34686,-0.68756 8.68194,-1.38382 13.10033,-1.10059 6.00253,-0.005 12.00507,-0.0195 18.00757,-10e-4 5.01222,0.007 10.02451,-0.007 15.03663,0.0243 0,0 5.48051,-4.14011 5.48051,-4.14011 z"
       id="path492"
       style="fill:#47802b;stroke-width:0.629946;fill-opacity:1" />
    <path
       d="m 177.07998,22.615894 c -6.36906,0.960028 -12.69591,2.279094 -18.97719,3.734598 -4.34787,1.233575 -8.81458,1.770064 -13.29907,2.060951 -3.58997,0.103199 -7.14074,0.700587 -10.71613,1.009299 -3.92473,0.294571 -7.862,0.305512 -11.79483,0.329385 -4.22003,0.01508 -8.44011,0.01 -12.66015,0.005 -4.19643,-0.03887 -8.40539,-0.436656 -12.570717,-0.969225 -5.285976,-0.880215 -10.641922,-1.067349 -15.982682,-1.251518 -5.009487,-0.156809 -10.021702,-0.166527 -15.032987,-0.160997 -4.577336,0.005 -9.154682,-0.0013 -13.732018,-0.005 -3.423568,0.0017 -6.84714,-0.005 -10.270694,0.0017 -3.525724,0.219954 -7.028208,0.698611 -10.552053,0.950832 -2.115305,0.240843 -4.215483,0.599614 -6.32422,0.893567 0,0 -5.422872,4.210675 -5.422872,4.210675 v 0 c 2.105526,-0.284204 4.201566,-0.631064 6.304429,-0.935118 3.520231,-0.234277 7.017746,-0.682175 10.531609,-0.992947 3.424826,0.005 6.849667,-0.0017 10.274498,-0.005 4.58975,-0.01 9.179499,-0.02798 13.76926,-0.02446 5.010444,0.0117 10.021621,0.005 15.03088,0.136037 5.317031,0.165019 10.650762,0.339353 15.91229,1.221429 4.174782,0.579895 8.408488,0.954767 12.616827,1.044162 4.22087,0.0017 8.44174,0.01 12.66261,-0.0013 3.93694,-0.01944 7.87856,-0.01508 11.80908,-0.276815 3.58259,-0.274971 7.13057,-0.904239 10.72185,-1.030559 4.51393,-0.260864 9.02783,-0.731178 13.39952,-1.994823 6.22289,-1.510875 12.51646,-2.740077 18.82224,-3.810559 0,0 5.48052,-4.140127 5.48052,-4.140127 z"
       id="path494"
       style="fill:#47802b;stroke-width:0.629946;fill-opacity:1" />
    <path
       d="m 38.310063,262.76527 c -0.127236,-4.48793 0.151514,-8.98842 -0.164567,-13.46759 -0.614766,-4.39582 -1.740403,-8.6819 -2.517039,-13.04617 -0.81155,-3.82605 -1.564959,-7.66159 -2.385793,-11.48585 -1.127903,-4.63194 -2.164673,-9.29563 -3.453035,-13.88277 -1.171606,-4.13018 -2.054504,-8.28835 -2.503867,-12.56806 -0.32351,-4.76838 -0.412799,-9.53769 -0.780265,-14.30348 -0.49778,-5.45012 -0.685357,-10.8981 -0.385696,-16.36191 0.512195,-4.43356 1.273536,-8.82994 1.623609,-13.28253 0.120525,-4.18913 0.649671,-8.34349 0.981984,-12.51681 0.412436,-5.58463 0.35996,-11.19299 0.394136,-16.79018 -0.157562,-6.25918 0.152681,-12.4894 0.550917,-18.73011 0.362195,-6.30275 0.998595,-12.583853 1.413376,-18.884487 0.322077,-4.79406 0.335624,-9.59905 0.347809,-14.40186 -0.26686,-6.575952 -1.435279,-13.067091 -2.312549,-19.574971 -0.627682,-4.607979 -0.932367,-9.250435 -1.064065,-13.899309 -0.06514,-1.52818 -0.08086,-3.026824 0.113785,-4.541551 0,0 -6.076315,3.134011 -6.076315,3.134011 v 0 c -0.123874,1.540779 -0.113855,3.072778 -0.04819,4.618584 0.171057,4.65988 0.515036,9.311366 1.168649,13.927704 0.904806,6.474101 2.035748,12.946882 2.244281,19.497002 -0.03096,4.78957 -0.08399,9.58126 -0.365681,14.3634 -0.385808,6.301044 -1.031506,12.578017 -1.403537,18.878907 -0.402419,6.24921 -0.649329,12.49185 -0.515431,18.75829 -0.0346,5.59182 -0.04719,11.19185 -0.47137,16.76989 -0.345671,4.17375 -0.853366,8.3322 -0.993963,12.52187 -0.385683,4.44779 -1.106695,8.84885 -1.582842,13.2859 -0.272888,5.49079 -0.05139,10.96728 0.42801,16.44317 0.350859,4.77484 0.403401,9.5583 0.77503,14.33146 0.464587,4.3189 1.366622,8.51496 2.541918,12.68608 1.29459,4.5676 2.371705,9.20347 3.445029,13.83175 0.790445,3.82548 1.550921,7.65499 2.363614,11.47526 0.803237,4.3316 1.926761,8.59473 2.480884,12.97426 0.296258,4.4711 0.07561,8.9626 0.108533,13.4414 0,0 6.042647,-3.2013 6.042647,-3.2013 z"
       id="path496"
       style="fill:#47802b;stroke-width:0.629946;fill-opacity:1" />
    <path
       d="m 195.85057,248.52147 c -0.0453,-4.86712 -0.0302,-9.7346 -0.0289,-14.60187 -0.0111,-5.45525 -0.007,-10.91047 -0.003,-16.36572 0.0141,-4.08608 0.0187,-8.17214 0.0164,-12.25824 0.003,-4.13658 -6.2e-4,-8.2732 -0.01,-12.40976 0.34844,-4.60708 -0.46412,-9.07465 -1.22733,-13.57983 -0.70043,-4.33457 -1.4358,-8.66389 -2.18101,-12.99185 -1.21051,-4.7815 -1.71117,-9.68888 -2.04449,-14.6067 -0.31957,-4.70937 -0.12798,-9.43492 -0.42144,-14.14283 -0.35599,-5.06739 -0.56301,-10.14382 -1.5315,-15.13407 -0.87655,-4.36596 -1.46854,-8.78509 -2.25522,-13.16998 -0.73361,-5.55838 -1.98108,-11.016593 -2.85284,-16.549213 -0.82282,-5.322144 -1.04495,-10.708694 -1.16127,-16.088434 -0.13172,-4.50899 -0.0789,-8.996558 0.29888,-13.488201 0.26615,-4.475193 0.80134,-8.914211 1.27929,-13.367155 0.20921,-4.326441 1.44016,-8.480556 2.20424,-12.716127 0.83482,-2.783333 0.16742,-5.893706 0.95932,-8.649412 0,0 -6.13361,3.070466 -6.13361,3.070466 v 0 c -0.46127,2.85028 -0.20804,5.815971 -0.89301,8.646347 -0.77643,4.242807 -1.95798,8.41733 -2.16689,12.754107 -0.49909,4.455653 -0.9826,8.905625 -1.27083,13.383132 -0.38199,4.511383 -0.38305,9.021543 -0.24854,13.548473 0.12519,5.40686 0.3666,10.81874 1.2248,16.163254 0.87288,5.539023 2.09178,11.010603 2.8352,16.573653 0.75868,4.39578 1.3519,8.82272 2.24012,13.19236 0.95772,4.95889 1.18039,10.00463 1.50104,15.04215 0.2627,4.7111 0.0851,9.43802 0.42881,14.14772 0.35607,4.93933 0.87272,9.86936 2.06757,14.67738 0.75257,4.32641 1.45903,8.66079 2.17512,12.99264 0.76185,4.46576 1.51874,8.90124 1.18194,13.4664 -0.01,4.13988 -0.0111,8.2798 -0.01,12.41969 -0.004,4.08041 0.003,8.16076 0.0164,12.24112 0.004,5.45645 0.007,10.91288 -0.003,16.36929 0.001,4.87749 0.0164,9.75518 -0.0289,14.63248 0,0 6.04264,-3.20127 6.04264,-3.20127 z"
       id="path498"
       style="fill:#47802b;stroke-width:0.629946;fill-opacity:1" />
    <path
       d="m 165.22933,36.926226 c -2.11252,4.171456 -4.01182,8.509154 -6.55616,12.420348 -2.22557,3.773568 -4.39539,7.53462 -7.0762,10.982234 -2.81282,4.021057 -6.03619,7.685022 -9.31301,11.295005 -4.02177,4.45827 -7.87382,9.09135 -12.04595,13.40033 -3.79382,4.41534 -8.29584,8.049784 -12.45056,12.065754 -3.89317,3.432033 -7.39523,7.292993 -10.52584,11.479113 -2.73157,3.74484 -5.10695,7.76239 -7.622109,11.66993 -2.139667,3.9685 -3.919777,8.12738 -5.643187,12.30487 -1.936709,4.28636 -3.967855,8.52712 -5.528272,12.98145 -0.848436,2.8065 -1.824001,5.59057 -2.94215,8.29486 -0.889871,1.9855 -0.431671,0.93578 -1.367848,3.15234 0,0 6.135983,-2.921 6.135983,-2.921 v 0 c 0.963741,-2.22061 0.50145,-1.16163 1.385695,-3.17747 1.074148,-2.72598 2.071077,-5.49189 2.900573,-8.3095 1.584561,-4.43043 3.615188,-8.65633 5.527915,-12.93968 1.72382,-4.14886 3.49819,-8.29176 5.70469,-12.19224 2.51387,-3.89007 4.83896,-7.92458 7.62428,-11.61265 3.16912,-4.13018 6.67984,-7.948213 10.5559,-11.371713 4.1899,-3.975524 8.60277,-7.705524 12.4256,-12.086754 4.13635,-4.34792 8.01262,-8.95616 12.03487,-13.41704 3.28679,-3.631086 6.49548,-7.332765 9.32947,-11.364144 2.64664,-3.486145 4.78096,-7.290202 7.05428,-11.042191 2.46999,-4.003756 4.43981,-8.331017 6.5523,-12.544891 0,0 -6.16027,2.933039 -6.16027,2.933039 z"
       id="path500"
       style="fill:#47802b;stroke-width:0.629946;fill-opacity:1" />
    <path
       d="m 185.78997,253.21468 c -4.24888,-4.91523 -8.28444,-10.03044 -12.2243,-15.21532 -3.36208,-4.38593 -7.2951,-8.30283 -11.22239,-12.14334 -3.26923,-3.20876 -6.56167,-6.39299 -9.84257,-9.59033 -4.03451,-3.74699 -8.10215,-7.45452 -12.35295,-10.93509 -3.93599,-2.91359 -7.74931,-5.99616 -11.86948,-8.62756 -3.83752,-2.74088 -7.74783,-5.38808 -11.28304,-8.54622 -3.18191,-3.16867 -6.6573,-5.99514 -10.00909,-8.96372 -3.14864,-2.56154 -6.26801,-5.12231 -9.048771,-8.11439 -2.009705,-2.36629 -4.708016,-3.76312 -7.307759,-5.28473 -0.370825,-0.22627 -0.741659,-0.45261 -1.112485,-0.67889 0,0 -5.688183,3.83246 -5.688183,3.83246 v 0 c 0.374197,0.23113 0.748397,0.46246 1.12259,0.69371 2.559481,1.46346 5.226564,2.81378 7.227121,5.09168 2.791568,3.01725 5.90988,5.6114 9.102797,8.15806 3.33502,2.98867 6.83001,5.79016 10.01261,8.95644 3.53291,3.21632 7.49122,5.85755 11.33419,8.65223 4.12959,2.5764 7.90824,5.67056 11.84497,8.54614 4.25765,3.43667 8.2956,7.14923 12.30821,10.88872 3.26789,3.21263 6.57489,6.3822 9.84463,9.59141 3.92358,3.79896 7.84746,7.68443 11.20324,12.03462 3.94943,5.163 8.01317,10.23394 12.13498,15.2488 0,0 5.82568,-3.59468 5.82568,-3.59468 z"
       id="path502"
       style="fill:#47802b;stroke-width:0.629946;fill-opacity:1" />
    <path
       d="m 59.77881,253.78015 c 0.461325,-0.54725 0.94473,-1.07521 1.383984,-1.64178 1.149,-1.48196 1.839833,-2.69374 3.056516,-4.1194 1.752675,-2.0537 3.761523,-3.94192 5.631236,-5.87931 3.554931,-3.51707 7.088624,-7.05037 10.533636,-10.68593 3.096858,-2.82018 5.760689,-6.10236 8.800684,-8.98263 2.714515,-3.08718 5.320315,-6.24574 8.449764,-8.88645 2.63645,-2.02806 5.24682,-4.10866 7.76239,-6.3015 1.11227,-1.05607 2.31522,-1.97932 3.43783,-3.02239 0,0 -6.2753,2.65169 -6.2753,2.65169 v 0 c -1.13646,1.01098 -2.31175,1.97044 -3.432309,3.00093 -2.534624,2.17055 -5.152562,4.23507 -7.765643,6.30137 -3.075018,2.69848 -5.610156,5.93342 -8.420314,8.91759 -2.982861,2.93983 -5.716071,6.14497 -8.77541,9.00448 -3.440903,3.61923 -6.970846,7.13743 -10.498082,10.66409 -1.886823,1.95255 -3.87738,3.86681 -5.619271,5.96404 -0.259094,0.31194 -2.841958,3.78257 -3.089456,4.09285 -0.456815,0.57269 -0.949475,1.11338 -1.424206,1.67006 0,0 6.243951,-2.74771 6.243951,-2.74771 z"
       id="path504"
       style="fill:#47802b;stroke-width:0.629946;fill-opacity:1" />
    <path
       d="m 40.205875,50.072878 c 2.879415,3.563095 6.284831,6.580153 9.531088,9.763647 2.214991,2.690812 4.790269,5.001126 7.209927,7.480611 2.964273,2.588227 6.086411,5.007767 9.209399,7.394537 3.162893,2.65475 6.585639,4.93323 9.971112,7.25997 3.941525,2.68105 8.106447,5.01313 12.427898,6.95708 3.220123,1.42667 6.363655,3.031914 9.464899,4.717104 0,0 5.642402,-3.843984 5.642402,-3.843984 v 0 c -3.11545,-1.70347 -6.284556,-3.30114 -9.520385,-4.74358 -4.295157,-1.90564 -8.43599,-4.1957 -12.338887,-6.86659 -3.367872,-2.3391 -6.816248,-4.56428 -9.966477,-7.2258 -3.10648,-2.349105 -6.148551,-4.816216 -9.133886,-7.320973 -2.417223,-2.49295 -4.999441,-4.80546 -7.239675,-7.481818 -3.245021,-3.169344 -6.672607,-6.154655 -9.480737,-9.770875 0,0 -5.776678,3.680671 -5.776678,3.680671 z"
       id="path506"
       style="fill:#47802b;stroke-width:0.629946;fill-opacity:1" />
  </g>
</svg>
