<?xml version="1.0" encoding="UTF-8" standalone="no"?>
<svg
   xmlns:dc="http://purl.org/dc/elements/1.1/"
   xmlns:cc="http://creativecommons.org/ns#"
   xmlns:rdf="http://www.w3.org/1999/02/22-rdf-syntax-ns#"
   xmlns:svg="http://www.w3.org/2000/svg"
   xmlns="http://www.w3.org/2000/svg"
   xmlns:sodipodi="http://sodipodi.sourceforge.net/DTD/sodipodi-0.dtd"
   xmlns:inkscape="http://www.inkscape.org/namespaces/inkscape"
   width="210mm"
   height="297mm"
   viewBox="0 0 210 297"
   version="1.1"
   id="svg26"
   inkscape:version="1.0 (4035a4fb49, 2020-05-01)"
   sodipodi:docname="phone.svg">
  <defs
     id="defs20" />
  <sodipodi:namedview
     id="base"
     pagecolor="#ffffff"
     bordercolor="#666666"
     borderopacity="1.0"
     inkscape:pageopacity="0.0"
     inkscape:pageshadow="2"
     inkscape:zoom="0.65312309"
     inkscape:cx="103.20214"
     inkscape:cy="546.66105"
     inkscape:document-units="mm"
     inkscape:current-layer="layer1"
     inkscape:document-rotation="0"
     showgrid="false"
     inkscape:window-width="1920"
     inkscape:window-height="986"
     inkscape:window-x="-11"
     inkscape:window-y="1609"
     inkscape:window-maximized="1" />
  <metadata
     id="metadata23">
    <rdf:RDF>
      <cc:Work
         rdf:about="">
        <dc:format>image/svg+xml</dc:format>
        <dc:type
           rdf:resource="http://purl.org/dc/dcmitype/StillImage" />
        <dc:title />
      </cc:Work>
    </rdf:RDF>
  </metadata>
  <g
     inkscape:label="Layer 1"
     inkscape:groupmode="layer"
     id="layer1">
    <path
       d="m 48.725798,289.71942 c 6.528514,-0.4712 13.086539,-0.2902 19.622375,-0.10721 7.90787,0.29964 15.816961,0.55568 23.7281,0.69161 6.304096,0.10813 12.608827,0.1242 18.913457,0.12835 5.70662,0.0625 11.40949,-0.30834 17.10361,-0.71439 4.88205,-0.42294 9.75308,-0.97888 14.62382,-1.54987 3.72493,-0.48374 7.45243,-0.9748 11.15712,-1.64609 2.40491,-0.4268 4.79362,-0.96127 7.18178,-1.50151 2.40381,-0.36146 4.6632,-1.28238 6.88976,-2.36703 4.43516,-2.2976 9.01213,-4.84287 12.22362,-9.20704 1.27478,-1.93355 2.06725,-4.17612 2.5759,-6.53377 0.6251,-2.68958 0.79019,-5.46093 1.08512,-8.21622 0.32916,-3.85041 0.86139,-7.66764 1.27031,-11.5063 0.52184,-5.34283 1.18237,-10.66426 1.75847,-15.99907 0.49197,-4.55153 0.63806,-9.13568 0.70631,-13.7187 -0.0478,-3.79283 0.23586,-7.56972 0.42359,-11.35188 0.17025,-4.0944 0.17019,-8.1952 0.20731,-12.29341 -0.0756,-3.7924 0.1174,-7.57 0.30043,-11.35314 0.21456,-4.22779 0.26583,-8.46221 0.29516,-12.69626 -0.19763,-5.46825 -0.40966,-10.93498 -0.51951,-16.40694 0.004,-5.33828 -0.15693,-10.66366 -0.38089,-15.99381 -0.089,-5.10672 -0.49818,-10.18652 -0.89942,-15.26803 -0.3065,-6.32307 -0.65976,-12.6329 -1.1347,-18.94159 -0.37698,-6.265008 -0.85865,-12.518823 -1.12749,-18.79235 -0.20204,-5.72035 -0.53195,-11.43207 -0.72405,-17.153376 -0.13462,-5.360284 -0.43043,-10.712119 -0.59805,-16.071373 -0.077,-4.32964 -0.25185,-8.661717 -0.61676,-12.971391 -0.28972,-4.214859 -0.93807,-8.368221 -1.72011,-12.48833 -0.7241,-3.996658 -1.71581,-7.615859 -3.62867,-11.035493 -2.23067,-3.276362 -5.37362,-5.1376772 -8.62095,-6.6210939 -3.38442,-1.548636 -6.92602,-2.2449615 -10.5219,-2.5904355 -3.16651,-0.3547134 -6.33531,-0.063474 -9.49774,0.1772259 -2.94181,0.1366609 -5.87323,0.4390428 -8.79849,0.8250666 -3.51791,0.5432672 -7.00393,1.3177585 -10.49025,2.0852237 -3.20592,0.7171556 -6.39881,1.5111172 -9.60418,2.2317962 -3.33229,0.651154 -6.69586,1.046148 -10.04908,1.512386 -3.77452,0.516293 -7.5541,0.969632 -11.332748,1.439889 -3.807083,0.527914 -7.635037,0.771183 -11.453936,1.141467 -3.327577,0.357564 -6.66673,0.493978 -10.00583,0.578493 -2.880335,0.05949 -5.761271,0.04899 -8.641918,0.04428 -2.844923,0.01733 -5.685502,0.05546 -8.524546,-0.182344 -2.297686,-0.263075 -4.601852,-0.413263 -6.908215,-0.511626 -2.271216,-0.228775 -4.436572,0.37103 -6.597203,1.113348 -4.226999,2.043654 -8.650187,4.409131 -11.898681,8.266875 -0.840732,0.998416 -1.050299,1.499617 -1.714091,2.678276 -1.542681,2.970649 -2.184858,6.311686 -2.762145,9.68414 -0.763332,3.864903 -1.285597,7.77855 -1.61008,11.727055 -0.15556,3.575424 -0.51184,7.130845 -0.670617,10.705818 -0.146165,4.330614 -0.19086,8.665635 -0.213008,12.999355 -0.06293,4.228452 -0.0096,8.447464 0.188679,12.669148 0.345176,5.949261 0.680823,11.902097 1.170554,17.83796 0.73448,6.55545 1.586599,13.08103 2.025696,19.67677 0.557811,6.82788 0.769246,13.68315 0.898367,20.53803 -0.03534,5.39473 0.24872,10.77681 0.445541,16.16352 0.164429,4.59003 0.498045,9.16735 0.667643,13.75832 0.133692,4.04201 0.14252,8.08777 0.157527,12.13227 -0.15144,3.98979 -0.395768,7.97235 -0.514748,11.96416 -0.115962,3.46415 -0.115139,6.93158 -0.116541,10.39783 0.01573,4.08815 0.02316,8.17631 0.0069,12.26449 -0.13438,3.75184 -0.50311,7.47998 -0.796624,11.21639 -0.226013,3.46132 -0.31651,6.92626 -0.638662,10.37719 -0.271613,2.87298 -0.354267,5.76411 -0.410673,8.65228 -0.133861,2.84164 0.16768,5.66647 0.350778,8.49451 0.3433,2.63361 0.599558,5.27854 0.740147,7.93785 0.09907,2.51903 0.381358,5.02643 0.768615,7.50501 0.334455,1.75205 0.620829,3.55043 1.093022,5.26043 0.345618,1.05553 0.690346,2.12548 1.112608,3.14262 0,0 7.456787,-5.01986 7.456787,-5.01986 v 0 c -0.404556,-0.97295 -0.732183,-1.99738 -1.059298,-3.00931 -0.44907,-1.6726 -0.765758,-3.40784 -1.084117,-5.12001 -0.390974,-2.44016 -0.626438,-4.911 -0.732046,-7.39194 -0.156018,-2.66128 -0.456138,-5.30225 -0.754407,-7.94572 -0.200319,-2.79411 -0.449897,-5.58956 -0.315123,-8.398 0.05975,-2.86507 0.159787,-5.73047 0.440472,-8.5792 0.28922,-3.44401 0.295646,-6.9057 0.576908,-10.35147 0.310746,-3.76358 0.702761,-7.52246 0.77043,-11.30754 -0.01928,-4.08963 -0.0175,-8.17931 0.006,-12.26892 0.01341,-3.45381 0.03138,-6.90792 0.117944,-10.36051 0.1279,-4.0018 0.358917,-7.99652 0.495266,-11.99769 -0.01128,-4.05256 -0.05275,-8.10533 -0.199074,-12.15469 -0.189798,-4.58497 -0.51272,-9.15975 -0.687635,-13.74529 -0.217394,-5.3647 -0.505994,-10.72595 -0.514489,-16.09931 -0.167317,-6.86918 -0.417388,-13.73836 -0.91612,-20.58637 C 37.833073,111.01569 36.908742,104.50262 36.2169,97.93905 35.743272,91.992228 35.48702,86.024643 35.182765,80.062979 34.992044,75.85664 35.0051,71.649742 35.032423,67.438168 c 0.02017,-4.320486 0.02929,-8.643863 0.248996,-12.958212 0.214199,-3.558291 0.515755,-7.107862 0.682141,-10.670108 0.342414,-3.925886 0.892792,-7.806657 1.67336,-11.645781 0.593979,-3.269749 1.291544,-6.500982 2.909273,-9.305885 0.780236,-1.200068 0.865032,-1.450282 1.81104,-2.446111 0.328542,-0.34585 1.425965,-1.205373 1.034499,-0.96854 -2.07648,1.256266 -4.067117,2.702345 -6.107971,4.037963 -0.399921,0.261723 0.778131,-0.569714 1.18493,-0.816124 0.395374,-0.239489 0.811983,-0.426256 1.217973,-0.639388 2.092567,-0.744132 4.181865,-1.531513 6.401036,-1.337008 2.311506,0.06189 4.621378,0.185319 6.924018,0.44209 2.849977,0.265411 5.698453,0.277759 8.556985,0.246349 2.889916,-0.002 5.779904,-0.0047 8.66967,-0.04327 3.361601,-0.07142 6.723742,-0.220489 10.074576,-0.557906 3.827279,-0.397034 7.666363,-0.613667 11.484011,-1.138979 3.768434,-0.497659 7.54632,-0.874831 11.31166,-1.408578 3.35592,-0.476916 6.72249,-0.859128 10.06673,-1.444646 3.21147,-0.701455 6.40596,-1.498458 9.61043,-2.242519 3.47777,-0.741028 6.93963,-1.589307 10.44618,-2.131866 2.91067,-0.392692 5.82808,-0.731662 8.75674,-0.845857 3.14909,-0.254135 6.30279,-0.624492 9.46037,-0.318419 3.54462,0.283044 7.0562,0.85269 10.40449,2.341986 3.11157,1.340417 6.11944,3.067562 8.28883,6.134211 0.67426,1.182262 0.95488,1.580465 1.47862,2.886005 0.99303,2.475256 1.43973,5.164904 2.04841,7.790131 0.74301,4.091153 1.36776,8.21665 1.65915,12.391703 0.34074,4.295195 0.52006,8.601222 0.6114,12.913531 0.21484,5.346382 0.55522,10.686843 0.64172,16.039454 0.17072,5.720061 0.58712,11.42317 0.76928,17.142816 0.29224,6.27925 0.72462,12.54346 1.15989,18.81066 0.45922,6.31383 0.77382,12.63441 1.09994,18.95939 0.32366,5.08857 0.73704,10.16896 0.8313,15.27483 0.25029,5.31079 0.40165,10.62164 0.4143,15.94154 0.11236,5.47355 0.33597,10.94148 0.44378,16.41457 -0.0438,4.22312 -0.11419,8.4474 -0.33409,12.66371 -0.20325,3.79879 -0.3677,7.59179 -0.27997,11.40074 -0.009,4.08794 -0.0528,8.17755 -0.2491,12.25981 -0.19041,3.78662 -0.43828,7.57149 -0.37532,11.3683 -0.075,4.53945 -0.22121,9.08131 -0.69268,13.59142 -0.56615,5.34622 -1.23048,10.6774 -1.80252,16.02276 -0.426,3.8516 -1.00353,7.67687 -1.33074,11.5439 -0.29027,2.72372 -0.5455,5.44936 -1.17538,8.10224 -0.58124,2.22873 -1.41039,4.35338 -2.74769,6.09899 -0.63898,0.75745 -0.74216,0.92126 -1.44272,1.58892 -0.25754,0.24544 -1.08375,0.89152 -0.7928,0.70566 12.05713,-7.70268 7.24254,-4.71831 4.54786,-3.20537 -2.21208,1.05076 -4.37996,2.25312 -6.79213,2.52307 -2.39311,0.56612 -4.79129,1.10327 -7.20215,1.55329 -3.69578,0.79844 -7.44553,1.2282 -11.17498,1.74444 -4.89821,0.58878 -9.79015,1.23088 -14.70114,1.6653 -5.68758,0.41662 -11.38304,0.77436 -17.08315,0.77113 -6.32456,-0.003 -12.64927,0.001 -18.973675,-0.0612 -7.918067,-0.11048 -15.83542,-0.28644 -23.7483,-0.65737 -6.454932,-0.23762 -12.920559,-0.33352 -19.377261,-0.21904 0,0 -6.846375,5.97278 -6.846375,5.97278 z"
       id="path29"
       style="fill:#47802b;stroke-width:0.438951;fill-opacity:1" />
    <path
       d="m 89.572629,238.66701 c -1.046434,4.09543 -0.24316,8.32323 0.918397,12.24745 1.664878,4.27604 4.00792,7.39697 7.239628,10.07329 2.520906,2.07855 5.403616,2.3983 8.375766,2.16041 1.84256,-0.26789 3.50139,-1.09059 5.08699,-2.21355 7.36682,-5.21734 8.34354,-5.19248 12.83621,-11.06752 2.08444,-2.978 3.79156,-6.35339 4.53163,-10.16104 0.33585,-1.72804 0.31927,-3.09362 0.38063,-4.84024 -0.27955,-4.55361 -2.55913,-7.85203 -5.44505,-10.60602 -3.15735,-2.68296 -6.68323,-3.67011 -10.46186,-4.26924 -3.49426,-0.26428 -7.00647,-0.22311 -10.45958,0.52971 -2.08274,0.45405 -3.025886,0.84135 -5.030068,1.53175 -5.757185,2.57441 -11.107482,6.52877 -15.713357,11.34761 0,0 7.823115,-3.75857 7.823115,-3.75857 v 0 c 1.188497,-1.18975 1.349985,-1.39408 2.67896,-2.52893 0.569962,-0.48673 2.363563,-1.79075 1.735895,-1.41657 -12.299467,7.33256 -4.613405,3.1752 -3.112347,2.38192 1.918361,-0.71427 2.989814,-1.17348 4.980806,-1.6622 3.375861,-0.82864 6.817056,-0.92169 10.248546,-0.68693 3.60089,0.50052 7.13353,1.3498 10.17297,3.84922 2.73902,2.48717 4.8946,5.49396 5.08005,9.76054 -0.0836,1.79165 -0.0593,2.80985 -0.44388,4.57977 -0.80063,3.68541 -2.55167,6.89828 -4.63105,9.74716 -0.60137,0.7455 -1.17291,1.52643 -1.80413,2.23651 -0.63555,0.71495 -2.82642,2.35071 -1.9917,2.03359 1.84588,-0.70126 3.39962,-2.21011 5.13694,-3.2285 1.1319,-0.66349 -2.1776,1.56218 -3.37389,2.04183 -0.46341,0.1858 -0.94764,0.28869 -1.42146,0.43304 -2.8145,0.38645 -5.61364,0.32352 -8.07039,-1.57746 -3.20446,-2.46556 -5.375056,-5.3677 -7.008877,-9.48917 -1.123854,-3.90612 -1.742618,-7.77961 -0.533112,-11.77802 0,0 -7.725782,4.33016 -7.725782,4.33016 z"
       id="path33"
       style="fill:#47802b;stroke-width:0.438951;fill-opacity:1" />
    <path
       d="m 140.22924,26.414969 c -3.02321,0.03927 -6.04688,0.04786 -9.07029,0.04226 -3.65935,0.0092 -7.31868,0.0077 -10.97804,0.0071 -3.76035,0.01787 -7.52176,-0.06028 -11.28066,0.07819 -4.47018,0.204151 -8.923779,0.704764 -13.388808,1.01402 -4.391742,0.185781 -8.771759,0.616551 -13.130555,1.271134 -3.708514,0.887136 -7.412405,1.983933 -10.950439,3.594702 -1.959894,0.892285 -2.971614,1.542282 -4.826478,2.625802 -8.528452,5.686392 -11.823864,6.661685 -15.333642,16.506611 -2.006485,7.434315 -2.711936,15.287874 -3.494726,23.012047 -0.762661,7.575562 -0.869138,15.190225 -0.747558,22.80637 0.293873,6.108685 0.540043,12.219705 0.948986,18.319295 0.210944,4.82809 0.691207,9.62712 1.107689,14.43375 0.527949,5.09296 1.342595,10.13705 2.079833,15.1921 0.627712,4.71383 1.086387,9.45731 1.587572,14.19198 0.55423,4.70029 0.849421,9.42958 1.231751,14.15079 0.336095,3.882 0.480483,7.77839 0.830381,11.6582 0.40323,3.65511 0.954306,7.26291 1.824856,10.8023 0.818856,3.56358 1.953286,6.9315 3.668909,10.01706 2.055529,3.10792 5.074606,4.57944 8.159192,5.73249 4.024023,1.32474 8.200804,1.55433 12.349539,1.72995 5.033655,0.25012 10.050305,-0.3087 15.038383,-1.04223 5.328025,-0.68298 10.571595,-1.97349 15.804055,-3.30757 4.60078,-1.11926 9.10732,-2.68883 13.63895,-4.13462 4.89556,-1.25672 9.4299,-3.57869 13.79484,-6.42809 7.1016,-5.03855 6.94895,-4.48799 11.18229,-8.23788 0.85648,-0.75867 2.63527,-2.35189 3.39139,-3.29406 1.21225,-1.51053 1.87179,-2.86767 2.83113,-4.59658 2.21048,-4.28304 3.35711,-9.11337 4.01418,-14.02989 0.3858,-4.92197 0.0436,-9.85231 -0.26818,-14.76331 -0.29512,-4.3897 -0.37855,-8.7929 -0.45213,-13.19385 -0.14636,-7.13612 -0.0849,-14.271 0.0802,-21.40512 0.15924,-8.68118 0.67902,-17.34583 1.12573,-26.011091 0.38472,-7.989967 0.52907,-15.988527 0.36979,-23.988225 -0.13005,-6.684142 -0.89862,-13.302753 -1.51646,-19.937195 -0.33031,-5.073729 -1.36245,-9.910441 -3.3335,-14.426658 -1.31983,-2.984911 -3.13128,-5.432513 -5.34151,-7.515784 -0.28236,-0.230285 -0.56471,-0.460571 -0.84709,-0.690854 0,0 -7.17118,5.442893 -7.17118,5.442893 v 0 c 0.27508,0.205046 0.55014,0.410073 0.82521,0.6151 2.24133,2.008536 3.86257,4.148389 5.2239,7.097086 2.00154,4.502859 2.89387,8.987863 3.26823,14.055977 0.67549,6.58653 1.41805,13.170858 1.55284,19.814128 0.16694,7.96435 0.0555,15.927039 -0.34177,23.881767 -0.40353,8.682176 -0.96786,17.355616 -1.14229,26.050976 -0.20183,7.17507 -0.22105,14.34839 -0.20408,21.52719 0.0213,4.42782 0.1241,8.85422 0.45044,13.2675 0.32959,4.83726 0.66658,9.70344 0.17779,14.54592 -0.71527,4.78896 -1.85216,9.4947 -4.11435,13.61403 -1.18175,1.98846 -1.46534,2.65974 -2.94742,4.3715 -0.7541,0.87095 -2.55002,2.47661 -3.37874,3.19592 -0.65685,0.5701 -2.73758,2.06312 -1.99194,1.67525 1.74921,-0.90991 3.3529,-2.17018 5.02935,-3.25527 -4.41605,2.99165 -8.63744,5.30735 -13.64524,6.5995 -4.53377,1.45808 -9.0461,3.02201 -13.64032,4.1981 -5.22722,1.35793 -10.46276,2.68895 -15.7875,3.4008 -4.935952,0.75762 -9.90691,1.31521 -14.890918,1.10855 -4.085509,-0.14496 -8.201904,-0.33055 -12.181062,-1.54572 -2.91795,-1.04592 -5.816474,-2.29524 -7.799781,-5.19431 -1.698192,-2.97363 -2.783167,-6.26289 -3.576679,-9.72377 -0.835072,-3.49691 -1.350657,-7.06906 -1.723142,-10.67532 -0.378175,-3.85788 -0.537307,-7.73867 -0.896976,-11.59959 -0.382053,-4.72934 -0.681535,-9.46743 -1.250897,-14.17339 -0.515363,-4.74818 -0.932333,-9.51482 -1.59805,-14.23712 -0.744431,-5.02806 -1.603086,-10.03682 -2.080188,-15.11354 -0.417256,-4.80088 -0.795795,-9.60619 -1.097045,-14.41913 -0.450026,-6.06579 -0.738037,-12.144992 -0.987524,-18.226815 -0.151303,-7.555216 -0.08961,-15.1122 0.703701,-22.625606 0.790602,-7.689873 1.490117,-15.532852 3.765872,-22.84336 1.176534,-3.00634 2.478944,-5.832675 4.615965,-8.056456 0.544286,-0.566393 2.390804,-1.91253 1.731843,-1.555695 -1.777357,0.962475 -3.411488,2.259291 -5.11723,3.388936 1.624673,-0.992732 3.094638,-1.943057 4.796029,-2.760929 3.460721,-1.663615 7.119562,-2.731719 10.757909,-3.676032 4.355427,-0.703596 8.735658,-1.182036 13.129991,-1.362655 4.448396,-0.284425 8.883971,-0.767449 13.334962,-0.990186 3.74707,-0.195226 7.49881,-0.05362 11.2487,-0.09677 3.65386,-4.87e-4 7.3077,-0.0018 10.96155,0.0072 2.99065,-0.0054 5.98158,0.0018 8.97199,0.04224 0,0 6.91852,-5.951977 6.91852,-5.951977 z"
       id="path43"
       style="fill:#47802b;stroke-width:0.438951;fill-opacity:1" />
  </g>
</svg>
