<?xml version="1.0" encoding="UTF-8" standalone="no"?>
<svg
   xmlns:dc="http://purl.org/dc/elements/1.1/"
   xmlns:cc="http://creativecommons.org/ns#"
   xmlns:rdf="http://www.w3.org/1999/02/22-rdf-syntax-ns#"
   xmlns:svg="http://www.w3.org/2000/svg"
   xmlns="http://www.w3.org/2000/svg"
   xmlns:sodipodi="http://sodipodi.sourceforge.net/DTD/sodipodi-0.dtd"
   xmlns:inkscape="http://www.inkscape.org/namespaces/inkscape"
   inkscape:version="1.0 (4035a4fb49, 2020-05-01)"
   sodipodi:docname="quote2.svg"
   id="svg8"
   version="1.1"
   viewBox="0 0 297 210"
   height="210mm"
   width="297mm">
  <defs
     id="defs2">
    <rect
       id="rect1581"
       height="25.324405"
       width="85.422619"
       y="122.08631"
       x="309.18452" />
    <rect
       id="rect1575"
       height="39.6875"
       width="150.05655"
       y="162.52976"
       x="299.35714" />
    <rect
       id="rect1569"
       height="27.214286"
       width="64.255952"
       y="85.044643"
       x="208.64286" />
    <rect
       id="rect1563"
       height="13.229167"
       width="46.113095"
       y="93.738095"
       x="209.39881" />
    <rect
       id="rect1557"
       height="30.616071"
       width="157.2381"
       y="84.28869"
       x="302.75893" />
    <rect
       id="rect1551"
       height="24.946429"
       width="117.92857"
       y="82.776786"
       x="280.08036" />
    <rect
       id="rect1545"
       height="54.428571"
       width="153.08036"
       y="83.910714"
       x="263.82738" />
    <rect
       id="rect1533"
       height="47.247024"
       width="162.15179"
       y="91.092262"
       x="23.8125" />
    <rect
       id="rect114"
       height="181.42857"
       width="254"
       y="12.095238"
       x="35.151786" />
    <rect
       id="rect108"
       height="192.76786"
       width="281.21429"
       y="9.0714286"
       x="7.9375" />
    <rect
       id="rect48"
       height="101.29762"
       width="254.75595"
       y="52.916667"
       x="27.214286" />
    <filter
       height="1.0000309"
       y="-1.5438233e-05"
       width="1.0000166"
       x="-8.3048938e-06"
       id="filter987"
       style="color-interpolation-filters:sRGB"
       inkscape:collect="always">
      <feGaussianBlur
         id="feGaussianBlur989"
         stdDeviation="0.00088191495"
         inkscape:collect="always" />
    </filter>
  </defs>
  <sodipodi:namedview
     inkscape:window-maximized="1"
     inkscape:window-y="1609"
     inkscape:window-x="-11"
     inkscape:window-height="986"
     inkscape:window-width="1920"
     showgrid="false"
     inkscape:document-rotation="0"
     inkscape:current-layer="layer1"
     inkscape:document-units="mm"
     inkscape:cy="318.81107"
     inkscape:cx="592.69577"
     inkscape:zoom="0.7"
     inkscape:pageshadow="2"
     inkscape:pageopacity="0.0"
     borderopacity="1.0"
     bordercolor="#666666"
     pagecolor="#ffffff"
     id="base" />
  <metadata
     id="metadata5">
    <rdf:RDF>
      <cc:Work
         rdf:about="">
        <dc:format>image/svg+xml</dc:format>
        <dc:type
           rdf:resource="http://purl.org/dc/dcmitype/StillImage" />
        <dc:title></dc:title>
      </cc:Work>
    </rdf:RDF>
  </metadata>
  <g
     id="layer1"
     inkscape:groupmode="layer"
     inkscape:label="Layer 1">
    <text
       style="fill:black;fill-opacity:1;line-height:1.25;stroke:none;font-family:sans-serif;font-style:normal;font-weight:normal;font-size:10.58333333px;white-space:pre;shape-inside:url(#rect48);"
       id="text46"
       xml:space="preserve" />
    <text
       style="fill:black;fill-opacity:1;line-height:1.25;stroke:none;font-family:sans-serif;font-style:normal;font-weight:normal;font-size:10.58333333px;white-space:pre;shape-inside:url(#rect108);"
       id="text106"
       xml:space="preserve" />
    <text
       y="0"
       x="0"
       style="font-style:normal;font-weight:normal;font-size:14.1111px;line-height:1.25;font-family:sans-serif;white-space:pre;shape-inside:url(#rect114);fill:#000000;fill-opacity:1;stroke:none;filter:url(#filter987);"
       id="text112"
       xml:space="preserve"
       transform="matrix(1.0355536,0,0,1.3231653,-10.311345,-35.28173)"><tspan
         x="35.152344"
         y="24.969688"><tspan
           style="font-style:italic;font-variant:normal;font-weight:normal;font-stretch:normal;font-size:14.1111px;font-family:sans-serif;-inkscape-font-specification:'sans-serif Italic';text-align:justify;text-anchor:start;fill:#504e4e;fill-opacity:1">
</tspan></tspan><tspan
         x="35.152344"
         y="42.608564"><tspan
           style="font-style:italic;font-variant:normal;font-weight:normal;font-stretch:normal;font-size:14.1111px;font-family:sans-serif;-inkscape-font-specification:'sans-serif Italic';text-align:justify;text-anchor:start;fill:#504e4e;fill-opacity:1">
</tspan></tspan></text>
    <path
       d="m 22.861803,171.21727 c -3.606531,0.44846 -6.927111,2.25038 -9.591533,4.73255 -0.840567,0.97128 -1.774956,2.00975 -2.046283,3.31195 -0.151501,0.7271 -0.06805,1.1478 -0.01103,1.87057 0.626266,2.63889 2.56984,4.05018 4.679483,5.52246 2.062276,1.13305 4.327734,2.07315 6.697557,2.28133 0.46827,0.0411 0.939885,0.0221 1.409828,0.0332 1.657751,-0.10684 3.292942,-0.52514 4.732167,-1.37219 5.275728,-3.10503 3.78098,-1.7985 5.904724,-3.77582 1.122685,-1.10032 1.546918,-2.12859 1.603836,-3.67464 -0.147069,-2.1472 -1.098939,-4.09022 -2.216756,-5.88809 -1.110023,-1.52043 -2.597211,-3.1924 -4.531307,-3.63418 -0.509617,-0.1164 -1.040734,-0.0995 -1.5611,-0.14929 -2.294665,0.0487 -4.337362,0.95572 -6.365012,1.9263 0,0 -3.972998,3.17391 -3.972998,3.17391 v 0 c 1.969166,-0.99579 3.950643,-1.97119 6.194813,-2.13001 0.481835,0.014 0.970649,-0.041 1.445504,0.0419 1.851254,0.32319 3.296082,1.93953 4.347007,3.35745 1.072843,1.70664 1.974461,3.57764 2.003661,5.63531 -0.134885,1.33509 -0.717066,2.40939 -1.742816,3.2932 -1.762945,1.47672 -0.672147,0.49056 2.894415,-1.40992 0.330922,-0.17633 -0.625563,0.41734 -0.96156,0.5838 -1.132662,0.56114 -2.388809,0.87191 -3.636809,1.01876 -0.45599,0.007 -0.912587,0.0458 -1.367972,0.0212 -2.315662,-0.12486 -4.538945,-1.02284 -6.568306,-2.08134 -1.926302,-1.31503 -3.910184,-2.71712 -4.38761,-5.15293 -0.01129,-0.27516 -0.05087,-0.55062 -0.03387,-0.82549 0.09844,-1.59183 1.202297,-2.83661 2.266742,-3.91793 1.756749,-1.43197 1.462892,-1.11339 -2.699045,1.28925 -0.288662,0.16664 0.58503,-0.32458 0.89709,-0.44169 0.300983,-0.11295 1.4002,-0.34595 1.737652,-0.40843 0.224046,-0.0415 0.450289,-0.0701 0.675433,-0.1051 0,0 4.204098,-3.12612 4.204098,-3.12612 z"
       id="path132"
       style="fill:#47802b;stroke-width:0.264583" />
    <path
       d="m 4.4983815,196.75098 c -0.8305408,1.10414 -1.6213566,2.35094 -1.8481074,3.74207 -0.054098,0.33189 -0.046824,0.67091 -0.070235,1.00637 0.024471,1.66485 0.6653039,3.40216 2.0573639,4.42575 0.3173735,0.23337 0.6887109,0.38265 1.0330664,0.57398 2.9316989,1.01937 5.6577816,0.25884 8.3593566,-1.00719 1.774801,-1.03577 3.573181,-2.03215 5.324404,-3.10731 1.269415,-0.77935 1.596976,-2.21924 1.699717,-3.58921 -0.126007,-1.45157 -1.046658,-2.78631 -2.284301,-3.55809 -0.30996,-0.19328 -0.657285,-0.31893 -0.985928,-0.47839 -1.594745,-0.39614 -3.18973,-0.23544 -4.730537,0.34434 -0.655314,0.24659 -1.254488,0.62227 -1.881732,0.93341 0,0 -3.9166536,3.14655 -3.9166536,3.14655 v 0 c 0.5996961,-0.3351 1.1677504,-0.73449 1.7990881,-1.00531 1.4115145,-0.60548 2.9232735,-0.80559 4.4314345,-0.56806 0.30222,0.12743 0.622027,0.21932 0.906659,0.38229 1.118262,0.64027 1.972314,1.82427 2.00609,3.11766 -0.093,0.73544 -0.203907,1.38985 -0.63725,2.01801 -0.969005,1.40465 -4.579855,2.93506 2.273555,-0.83568 -2.562048,1.32855 -5.171343,2.22877 -8.0579436,1.38486 -0.3137138,-0.15258 -0.6525662,-0.26173 -0.9411414,-0.45775 -1.3161066,-0.89396 -1.8549615,-2.50617 -1.8287685,-4.02081 0.03923,-0.30706 0.050506,-0.61901 0.1176911,-0.92119 0.2999386,-1.34903 1.1241971,-2.53038 1.9979547,-3.5679 0,0 -4.8237824,2.0416 -4.8237828,2.0416 z"
       id="path136"
       style="fill:#47802b;stroke-width:0.264583" />
    <path
       d="m 17.72482,117.01448 c -2.253924,-1.66827 -3.60198,-3.96316 -4.790898,-6.44592 -1.163906,-2.86701 -1.726983,-5.97703 -1.778414,-9.0694 -0.01202,-0.72276 0.03104,-1.44537 0.04656,-2.168059 0.164728,-4.0177 0.712178,-8.032749 1.83762,-11.900138 0.254684,-0.875178 0.56599,-1.732875 0.848985,-2.599311 1.301791,-4.177342 3.515281,-7.931767 6.101583,-11.426129 1.305078,-1.74819 2.950863,-3.171989 4.536714,-4.648269 0.709461,-0.707874 0.50322,-1.127096 0.116634,-1.912485 -0.45917,-0.796695 -0.878107,-1.618551 -1.233122,-2.466697 -0.942788,-2.062832 -1.977844,-4.081039 -2.947692,-6.131364 -1.525303,-2.920381 -2.725163,-5.964997 -3.676454,-9.114713 -0.565685,-2.114153 -1.173539,-4.256797 -1.426515,-6.438612 -0.179844,-1.55108 -0.128892,-2.464025 -0.128438,-4.056621 0.394771,-4.863049 1.794588,-9.627827 3.808632,-14.064061 0.38965,-0.858264 0.838365,-1.688467 1.257548,-2.5327 2.069056,-3.89015 5.088291,-7.157732 8.70619,-9.662948 0.794671,-0.550269 1.635575,-1.030571 2.453362,-1.545857 -0.44885,0.317826 -1.888056,1.049697 -1.346554,0.953478 1.084699,-0.19274 2.021366,-0.880396 3.056567,-1.25733 2.695064,-0.9813182 5.836404,-1.9061814 8.710168,-2.1486085 0.927542,-0.078246 1.86156,-0.020238 2.792343,-0.030355 4.756941,0.163853 8.986089,1.8982375 13.101048,4.1375695 2.271077,1.265752 4.37053,2.797534 6.462744,4.33226 0.842703,0.618495 1.7278,1.202817 2.798847,1.20276 0.203213,-0.05151 0.411448,-0.0862 0.609645,-0.154524 0.332319,-0.11456 1.729147,-0.723922 1.972421,-0.828511 1.687571,-0.725528 3.374231,-1.440887 5.079548,-2.124275 5.440079,-1.957529 11.0808,-3.233768 16.739139,-4.366108 6.57792,-1.2296398 13.293609,-1.4044762 19.965599,-1.248916 3.87885,0.1450142 7.75678,0.5391526 11.54479,1.409502 2.12622,0.488531 2.578,0.681981 4.60713,1.339453 3.56197,1.177339 6.88495,2.903546 10.07081,4.86103 1.65035,1.058433 3.27334,2.175838 4.64738,3.581884 0.38462,0.436105 0.67926,0.943321 0.95997,1.450214 0,0 4.54407,-2.61789 4.54407,-2.61789 v 0 c -0.31221,-0.542559 -0.64311,-1.082464 -1.06084,-1.551074 -1.42593,-1.431497 -3.11068,-2.551812 -4.81719,-3.622585 -3.23435,-1.974478 -6.60599,-3.714133 -10.2148,-4.9087608 C 129.71527,8.6063766 129.05757,8.3500173 127.00827,7.8759705 123.18293,6.9910927 119.25966,6.6117821 115.34358,6.4468562 108.67351,6.2830987 101.94757,6.435577 95.359433,7.5742818 89.717953,8.7097168 84.095988,9.9577143 78.639129,11.814546 76.1454,12.780404 73.683259,13.822804 71.230598,14.887595 70.218725,15.179538 69.43405,14.57193 68.607685,14.038537 66.453448,12.526812 64.296043,11.011986 61.996631,9.7248338 57.83804,7.4895534 53.442687,5.6606124 48.658142,5.4510378 c -0.944325,-0.011589 -1.890774,-0.099152 -2.832971,-0.034769 -1.754282,0.1198761 -4.026402,0.6793095 -5.69595,1.1424158 -4.78455,1.3271584 -9.050943,3.2830502 -13.254135,6.0553044 -0.819256,0.531733 -1.662546,1.028152 -2.457768,1.595198 -3.608134,2.572836 -6.589168,5.914413 -8.606876,9.865344 -0.412427,0.853519 -0.854564,1.693308 -1.237281,2.560554 -1.992957,4.516094 -3.34265,9.356236 -3.803524,14.272353 -0.01479,1.606325 -0.07871,2.599264 0.103083,4.170283 0.254515,2.199499 0.889761,4.359579 1.463021,6.489054 0.9594,3.172005 2.190095,6.23443 3.676512,9.198843 0.951465,2.053034 1.981762,4.069342 2.853149,6.158521 0.354856,0.859721 0.752636,1.704297 1.207732,2.515954 0.339922,0.71001 0.207081,0.706742 -0.36792,1.29348 -1.569637,1.453364 -3.098436,2.958488 -4.371551,4.686625 -2.52634,3.531661 -4.63819,7.341039 -5.9127618,11.514481 -0.281222,0.877173 -0.5890332,1.746263 -0.8436655,2.631522 -1.1259574,3.914518 -1.6890026,7.963747 -1.8437384,12.029169 -0.017206,0.73906 -0.064163,1.47804 -0.051613,2.2172 0.053563,3.15486 0.6573392,6.3327 1.842299,9.25531 1.2244239,2.59221 2.5658857,4.86507 4.7775977,6.74414 0,0 4.423039,-2.79754 4.423039,-2.79754 z"
       id="path138"
       style="fill:#47802b;stroke-width:0.264583" />
    <path
       d="m 77.769187,189.84963 c 3.880432,0.75613 7.797983,1.29861 11.724495,1.74712 4.340862,0.38277 8.751157,0.36783 13.080558,-0.17734 0.99262,-0.12499 1.97655,-0.31135 2.96482,-0.46702 3.13597,-0.54391 6.2198,-1.47126 9.14799,-2.72183 3.41812,-1.45981 7.37858,-3.88112 10.26584,-5.69472 1.03689,-0.65131 1.97923,-1.44223 2.96885,-2.16334 3.48026,-2.63961 6.66677,-5.65334 9.54531,-8.93663 1.42772,-1.62847 2.09088,-2.52353 3.4008,-4.20061 1.0539,-1.36307 1.95812,-2.84117 3.0973,-4.13852 0.1952,-0.22232 0.39971,-0.43768 0.62032,-0.63482 0.15246,-0.13623 0.6725,-0.46376 0.49518,-0.36197 -1.38379,0.79435 -2.74494,1.62752 -4.11741,2.44127 0.069,-0.0122 0.14201,-0.0632 0.20683,-0.0367 0.40799,0.16665 0.94788,1.17842 1.17793,1.48266 0.48895,0.64661 1.08017,1.32444 1.60243,1.93989 1.53605,1.63777 3.03529,3.33924 4.72335,4.82652 1.3904,1.22503 2.26149,1.82617 3.76839,2.95325 0.76493,0.50529 1.49986,1.0592 2.29478,1.51586 3.61272,2.07539 8.21638,3.77476 12.31794,4.51853 1.07372,0.19471 2.16456,0.279 3.24684,0.4185 2.26151,0.11975 4.00412,0.30619 6.27019,0.0468 3.66444,-0.41941 7.28702,-1.53935 10.71011,-2.87287 1.06891,-0.41642 2.10942,-0.90235 3.16412,-1.35352 0.96686,-0.49227 1.95823,-0.93907 2.90056,-1.4768 2.34311,-1.33708 4.67366,-2.69921 6.95126,-4.14505 0.89903,-0.57071 1.72972,-1.24348 2.56919,-1.89863 1.9794,-1.5448 3.80502,-3.23992 5.58983,-5.00034 1.1871,-1.06347 2.09405,-2.49506 3.43028,-3.39816 0.13128,-0.0887 0.56034,-0.29564 0.42388,-0.21512 -1.41247,0.83339 -2.83508,1.64945 -4.25262,2.47418 0.4668,-0.13387 0.75551,0.51715 0.99738,0.82208 1.38028,1.41187 3.04512,2.53215 4.67955,3.62747 3.43768,2.25012 7.18077,3.96304 10.95766,5.55289 4.93021,1.91689 10.17397,3.05114 15.43219,3.59769 1.10977,0.11535 2.22585,0.15864 3.33877,0.23796 4.92568,0.31214 9.86536,-0.093 14.68565,-1.14188 0.85598,-0.18626 1.70129,-0.41853 2.55194,-0.6278 5.96557,-1.6323 11.45687,-4.55151 16.46842,-8.15949 2.4199,-1.94676 4.32887,-4.40859 6.10616,-6.93116 0.56237,-0.76412 1.08042,-1.55997 1.62637,-2.3351 0.31837,-0.45201 0.63965,-0.84218 0.88042,-1.34138 0,0 -4.78136,2.1471 -4.78136,2.1471 v 0 c -0.74004,1.2348 -1.65082,2.3648 -2.43121,3.57373 -1.75236,2.48408 -3.67059,4.87989 -6.10031,6.74101 -1.98644,1.38291 -2.61741,1.74523 1.09736,-0.39075 0.64932,-0.37335 -1.29961,0.74705 -1.97183,1.07735 -2.22703,1.09427 -4.58669,1.90137 -6.95963,2.60915 -0.84868,0.21867 -1.69187,0.45994 -2.54607,0.656 -4.80991,1.10402 -9.7431,1.55225 -14.67352,1.29179 -1.10882,-0.0693 -2.22057,-0.10171 -3.32646,-0.20789 -5.20705,-0.4999 -10.38276,-1.63394 -15.24851,-3.56428 -3.72913,-1.5766 -7.42796,-3.27883 -10.80507,-5.53262 -1.56385,-1.08408 -3.15428,-2.18261 -4.4783,-3.55935 -0.37309,-0.50008 -0.6975,-1.11543 -1.31949,-1.3274 -1.6018,0.86742 -3.21393,1.71602 -4.80539,2.60224 -0.22925,0.12765 -0.74232,0.61506 -0.87931,0.74965 -0.94704,0.93036 -1.79983,1.95203 -2.73844,2.89058 -1.74982,1.72153 -3.53683,3.38233 -5.48692,4.88051 -0.83888,0.64447 -1.82738,1.10833 -2.57049,1.86122 -0.36054,0.36528 1.83594,-0.91668 1.38907,-0.66426 -0.94978,0.53649 -1.93294,1.01159 -2.89941,1.51739 -1.05687,0.46598 -2.09872,0.96765 -3.17061,1.39796 -3.37039,1.35301 -6.94478,2.4974 -10.56343,2.946 -2.25114,0.27908 -3.98283,0.11773 -6.23486,0.0276 -1.07153,-0.12659 -2.15096,-0.19846 -3.21459,-0.37979 -4.13371,-0.70474 -8.54573,-2.29269 -12.16726,-4.40645 -0.78055,-0.45558 -1.50337,-1.00357 -2.25506,-1.50535 -1.61678,-1.23438 -2.19394,-1.61919 -3.6664,-2.94754 -1.65357,-1.49173 -3.14451,-3.16594 -4.63353,-4.81703 -0.60278,-0.72524 -0.99017,-1.16152 -1.52959,-1.92021 -0.53464,-0.75196 -0.89824,-1.64044 -1.7516,-2.09565 -1.60499,0.92629 -3.23149,1.81626 -4.81497,2.77887 -0.24049,0.1462 -0.8817,0.92257 -0.99477,1.06465 -1.04481,1.31284 -1.92859,2.74275 -2.94647,4.0757 -1.31376,1.6857 -1.91224,2.50378 -3.35557,4.13782 -2.86655,3.2453 -6.04689,6.21228 -9.50833,8.81517 -0.99945,0.71095 -2.0587,1.34453 -2.99833,2.13283 -0.31722,0.26614 1.48434,-0.73486 1.11318,-0.55128 -1.01233,0.5007 -2.0026,1.04867 -3.03671,1.50267 -2.89295,1.27005 -5.94904,2.21128 -9.05565,2.77619 -0.97542,0.15938 -1.94625,0.34993 -2.92625,0.47814 -4.29634,0.56205 -8.671378,0.57788 -12.98387,0.23464 -3.85196,-0.44284 -7.706555,-0.95346 -11.487171,-1.83169 0,0 -4.296722,2.96371 -4.296722,2.96371 z"
       id="path140"
       style="fill:#47802b;stroke-width:0.264583" />
    <path
       d="m 190.61428,17.560771 c 3.50775,-1.672343 7.19924,-3.054301 10.96023,-4.046021 1.12926,-0.297773 2.27686,-0.521095 3.4153,-0.781643 5.25993,-1.114623 10.74302,-1.385297 15.9736,0.06205 0.85517,0.236633 1.67752,0.578926 2.51628,0.868389 3.23762,1.437247 5.6909,3.246301 7.47351,6.31769 0.627,1.371107 0.92525,2.843009 1.04961,4.336217 0.069,0.62168 0.33458,1.440701 1.10585,1.452971 0.18857,0.003 0.37296,-0.0563 0.55944,-0.08446 2.59419,-1.082011 5.10943,-2.345347 7.68945,-3.464255 4.6612,-1.971757 9.54056,-3.28941 14.45951,-4.428371 3.65954,-0.733425 7.35737,-1.360686 11.09042,-1.554139 2.11506,-0.109606 2.51722,-0.05742 4.56647,0.0053 2.90695,0.20328 5.82703,0.568019 8.56435,1.601714 1.72533,0.620725 3.18252,1.696617 4.51552,2.928122 1.28706,1.170428 2.28816,2.597586 3.31877,3.986794 1.06304,1.386461 1.93712,2.874885 2.59128,4.491735 0.55165,1.427811 0.76615,2.945598 0.87264,4.463203 0.0262,0.198946 0.0523,0.397894 0.0784,0.596839 0,0 4.61677,-2.427017 4.61677,-2.427017 v 0 c -0.0238,-0.190736 -0.0477,-0.381474 -0.0715,-0.572209 -0.1389,-1.560666 -0.40944,-3.118125 -0.98065,-4.584145 -0.66728,-1.659603 -1.5634,-3.185698 -2.65118,-4.60904 -1.04677,-1.415622 -2.07298,-2.864099 -3.36359,-4.073224 -1.37727,-1.272514 -2.86817,-2.420674 -4.64685,-3.077638 -0.89244,-0.345266 -1.20711,-0.496844 -2.16316,-0.735557 -2.16032,-0.539409 -4.40785,-0.72172 -6.6168,-0.923193 -1.99446,-0.06157 -2.59086,-0.117098 -4.63781,-0.01901 -3.76303,0.180315 -7.48653,0.823602 -11.18016,1.530401 -4.89642,1.091446 -9.7531,2.355296 -14.40228,4.270944 -2.5355,1.061975 -5.02084,2.23605 -7.50593,3.410702 -0.86487,0.366048 -1.03582,0.459819 -1.1812,-0.602465 -0.17895,-1.554672 -0.53448,-3.08672 -1.2188,-4.503702 -0.5353,-0.869066 -0.68966,-1.194227 -1.39581,-1.996686 -1.75868,-1.998547 -4.00904,-3.459544 -6.44039,-4.508423 -0.85697,-0.301397 -1.69633,-0.658514 -2.5709,-0.9041916 -5.27845,-1.4827718 -10.83685,-1.2887817 -16.15963,-0.1863479 -1.1323,0.2406695 -2.27428,0.4396225 -3.39691,0.7220095 -0.99833,0.251123 -1.9787,0.569608 -2.96109,0.87729 -2.64862,0.829551 -5.29915,1.723916 -7.81155,2.910813 0,0 -4.06119,3.248563 -4.06119,3.248563 z"
       id="path142"
       style="fill:#47802b;stroke-width:0.264583" />
    <circle
       r="0.046622891"
       cy="117.17262"
       cx="198.05951"
       style="fill:#47802b;stroke:#000000;stroke-width:0.264583"
       id="path148" />
    <circle
       r="0.046622891"
       cy="111.50297"
       cx="201.08333"
       style="fill:#47802b;stroke:#000000;stroke-width:0.264583"
       id="path150" />
    <circle
       r="0.046622891"
       cy="111.50297"
       cx="201.08333"
       style="fill:#47802b;stroke:#000000;stroke-width:0.264583"
       id="path152" />
    <circle
       r="0.046622891"
       cy="111.50297"
       cx="201.08333"
       style="fill:#47802b;stroke:#000000;stroke-width:0.264583"
       id="path154" />
    <circle
       r="0.046622891"
       cy="37.419643"
       cx="111.50297"
       style="fill:#47802b;stroke:#000000;stroke-width:0.264583"
       id="path156" />
    <circle
       r="0.046622891"
       cy="94.494049"
       cx="403.67859"
       style="fill:#47802b;stroke:#000000;stroke-width:0.264583"
       id="path158" />
    <text
       transform="matrix(1.4466308,0,0,1.9113168,-275.51381,-135.61678)"
       id="text1539"
       y="92.98214"
       x="208.64285"
       style="font-style:normal;font-weight:normal;font-size:10.5833px;line-height:1.25;font-family:sans-serif;white-space:pre;inline-size:185.381;fill:#000000;fill-opacity:1;stroke:none;stroke-width:0.264583"
       xml:space="preserve"><tspan
         x="208.64285"
         y="92.98214"><tspan
           style="stroke-width:0.264583">&quot;Going to therapy is like having a </tspan></tspan><tspan
         x="208.64285"
         y="106.21127"><tspan
           style="stroke-width:0.264583">personal trainer for your mind.</tspan><tspan
           style="stroke-width:0.264583">It's </tspan></tspan><tspan
         x="208.64285"
         y="119.44039"><tspan
           style="stroke-width:0.264583">tailored to you and your needs, </tspan></tspan><tspan
         x="208.64285"
         y="132.66952"><tspan
           style="stroke-width:0.264583">it's positive, focused and you're </tspan></tspan><tspan
         x="208.64285"
         y="145.89864"><tspan
           style="stroke-width:0.264583">supported throughout by your </tspan></tspan><tspan
         x="208.64285"
         y="159.12777"><tspan
           style="stroke-width:0.264583">therapist.&quot;</tspan></tspan></text>
    <text
       style="fill:black;fill-opacity:1;line-height:1.25;stroke:none;font-family:sans-serif;font-style:normal;font-weight:normal;font-size:10.58333333px;white-space:pre;shape-inside:url(#rect1545);"
       id="text1543"
       xml:space="preserve" />
    <text
       style="fill:black;fill-opacity:1;line-height:1.25;stroke:none;font-family:sans-serif;font-style:normal;font-weight:normal;font-size:10.58333333px;white-space:pre;shape-inside:url(#rect1551);"
       id="text1549"
       xml:space="preserve" />
    <text
       style="fill:black;fill-opacity:1;line-height:1.25;stroke:none;font-family:sans-serif;font-style:normal;font-weight:normal;font-size:10.58333333px;white-space:pre;shape-inside:url(#rect1557);"
       id="text1555"
       xml:space="preserve" />
    <text
       style="fill:black;fill-opacity:1;line-height:1.25;stroke:none;font-family:sans-serif;font-style:normal;font-weight:normal;font-size:10.58333333px;white-space:pre;shape-inside:url(#rect1563);"
       id="text1561"
       xml:space="preserve" />
    <text
       style="fill:black;fill-opacity:1;line-height:1.25;stroke:none;font-family:sans-serif;font-style:normal;font-weight:normal;font-size:10.58333333px;white-space:pre;shape-inside:url(#rect1569);"
       id="text1567"
       xml:space="preserve" />
    <text
       style="fill:black;fill-opacity:1;line-height:1.25;stroke:none;font-family:sans-serif;font-style:normal;font-weight:normal;font-size:10.58333333px;white-space:pre;shape-inside:url(#rect1575);"
       id="text1573"
       xml:space="preserve" />
    <text
       style="fill:black;fill-opacity:1;line-height:1.25;stroke:none;font-family:sans-serif;font-style:normal;font-weight:normal;font-size:10.58333333px;white-space:pre;shape-inside:url(#rect1581);"
       id="text1579"
       xml:space="preserve" />
  </g>
</svg>
