<?xml version="1.0" encoding="UTF-8" standalone="no"?>
<svg
   xmlns:dc="http://purl.org/dc/elements/1.1/"
   xmlns:cc="http://creativecommons.org/ns#"
   xmlns:rdf="http://www.w3.org/1999/02/22-rdf-syntax-ns#"
   xmlns:svg="http://www.w3.org/2000/svg"
   xmlns="http://www.w3.org/2000/svg"
   xmlns:sodipodi="http://sodipodi.sourceforge.net/DTD/sodipodi-0.dtd"
   xmlns:inkscape="http://www.inkscape.org/namespaces/inkscape"
   sodipodi:docname="quote.svg"
   inkscape:version="1.0 (4035a4fb49, 2020-05-01)"
   id="svg8"
   version="1.1"
   viewBox="0 0 210 297"
   height="297mm"
   width="210mm">
  <defs
     id="defs2">
    <rect
       id="rect18"
       height="109.6131"
       width="173.49107"
       y="61.988095"
       x="21.922619" />
  </defs>
  <sodipodi:namedview
     inkscape:window-maximized="0"
     inkscape:window-y="1620"
     inkscape:window-x="76"
     inkscape:window-height="1228"
     inkscape:window-width="1624"
     showgrid="false"
     inkscape:document-rotation="0"
     inkscape:current-layer="layer1"
     inkscape:document-units="mm"
     inkscape:cy="688.62919"
     inkscape:cx="617.41748"
     inkscape:zoom="0.7"
     inkscape:pageshadow="2"
     inkscape:pageopacity="0.0"
     borderopacity="1.0"
     bordercolor="#666666"
     pagecolor="#ffffff"
     id="base" />
  <metadata
     id="metadata5">
    <rdf:RDF>
      <cc:Work
         rdf:about="">
        <dc:format>image/svg+xml</dc:format>
        <dc:type
           rdf:resource="http://purl.org/dc/dcmitype/StillImage" />
        <dc:title></dc:title>
      </cc:Work>
    </rdf:RDF>
  </metadata>
  <g
     id="layer1"
     inkscape:groupmode="layer"
     inkscape:label="Layer 1">
    <text
       style="font-style:normal;font-weight:normal;font-size:10.5833px;line-height:1.25;font-family:sans-serif;white-space:pre;shape-inside:url(#rect18);fill:#000000;fill-opacity:1;stroke:none;"
       id="text16"
       xml:space="preserve"><tspan
         x="21.921875"
         y="71.643746"><tspan
           style="font-style:normal;font-variant:normal;font-weight:normal;font-stretch:normal;font-family:monospace;-inkscape-font-specification:monospace">Going to therapy is like </tspan></tspan><tspan
         x="21.921875"
         y="85.11155"><tspan
           style="font-style:normal;font-variant:normal;font-weight:normal;font-stretch:normal;font-family:monospace;-inkscape-font-specification:monospace">having a personal trainer </tspan></tspan><tspan
         x="21.921875"
         y="98.579354"><tspan
           style="font-style:normal;font-variant:normal;font-weight:normal;font-stretch:normal;font-family:monospace;-inkscape-font-specification:monospace">for your mind. It's </tspan></tspan><tspan
         x="21.921875"
         y="112.04716"><tspan
           style="font-style:normal;font-variant:normal;font-weight:normal;font-stretch:normal;font-family:monospace;-inkscape-font-specification:monospace">tailored to you and your </tspan></tspan><tspan
         x="21.921875"
         y="125.51496"><tspan
           style="font-style:normal;font-variant:normal;font-weight:normal;font-stretch:normal;font-family:monospace;-inkscape-font-specification:monospace">needs, it's positive, </tspan></tspan><tspan
         x="21.921875"
         y="138.98277"><tspan
           style="font-style:normal;font-variant:normal;font-weight:normal;font-stretch:normal;font-family:monospace;-inkscape-font-specification:monospace">focused and you're </tspan></tspan><tspan
         x="21.921875"
         y="152.45057"><tspan
           style="font-style:normal;font-variant:normal;font-weight:normal;font-stretch:normal;font-family:monospace;-inkscape-font-specification:monospace">supported throughout by </tspan></tspan><tspan
         x="21.921875"
         y="165.91837"><tspan
           style="font-style:normal;font-variant:normal;font-weight:normal;font-stretch:normal;font-family:monospace;-inkscape-font-specification:monospace">your therapist.</tspan></tspan></text>
    <path
       id="path32"
       d="m 17.386905,50.270833 c 0.62996,-2.39385 1.037729,-4.857499 1.889881,-7.181549 4.231059,-11.539254 18.318666,-18.901737 30.238095,-16.252975 2.860717,0.635714 5.383347,2.343052 7.9375,3.779763 0.93178,0.524127 1.611506,1.423977 2.267857,2.267855 1.762903,2.26659 2.71399,5.153282 4.157737,7.559524 0.183346,0.305575 0.596585,0.437216 0.755952,0.755954 0.112691,0.22538 -0.112689,0.530569 0,0.755952 0.159369,0.318738 0.579149,0.446545 0.755954,0.755952 2.721798,0.155736 0.399592,1.555138 0.755951,2.267857 0.231421,0.462844 1.406557,1.995228 1.889882,1.511906 0.08909,-0.08909 -0.08909,-0.288888 0,-0.377978 0.423273,-0.423273 2.034506,-1.792381 2.645833,-2.267855 10.529327,-8.189476 23.593716,-12.580827 36.663693,-14.363097 5.12411,-0.698741 11.45204,-0.513421 15.875,2.645833 2.41235,1.72311 6.25319,7.042328 7.18154,9.827382 0.31749,0.952455 1.66561,4.689414 2.26786,5.291667 0.67333,0.673332 2.44647,-2.477143 2.64583,-2.645834 2.54867,-2.156563 5.45844,-4.003034 8.31548,-5.669642 0.78478,-0.457787 1.44455,-1.127697 2.26786,-1.511906 11.95622,-5.57957 37.14659,-5.728539 44.97916,6.803572 1.15343,1.845485 1.88989,4.630447 1.88989,6.80357 0,2.617261 -2.16179,12.25659 -1.51191,12.473215 0.72705,0.242351 1.50148,-0.377976 2.26786,-0.377976 0.96675,0 3.85928,2.037041 4.53571,2.645834 3.59864,3.238772 4.40026,7.63819 5.29167,12.095236 2.14213,10.710651 -3.90417,22.601077 -10.58333,30.616077 -0.95431,1.14516 -1.16438,2.57058 -1.88989,3.77976 -0.18334,0.30557 -0.50396,0.50397 -0.75595,0.75595 -0.25198,0.37798 -0.52223,0.74439 -0.75595,1.13393 -0.20499,0.34164 -0.0962,0.8522 -0.37798,1.13393 -0.0891,0.0891 -0.28888,-0.0891 -0.37797,0 -0.16896,0.16895 2.66958,1.59468 3.02381,1.88988 1.75719,1.46432 2.7819,4.05191 3.77976,6.04762 0.84424,1.68847 1.0948,3.48422 1.5119,5.29166 1.35281,5.86216 1.34008,9.99923 -1.13393,15.875 -0.35256,0.83735 -1.03574,1.49409 -1.5119,2.26786 -3.24166,5.26769 -7.85931,9.88387 -12.47321,13.98512 -0.81754,0.7267 -1.62878,2.00675 -2.26786,2.64583 -0.0891,0.0891 -0.28889,-0.0891 -0.37798,0 -0.57269,0.57269 1.07503,0.31907 1.13393,0.37798 0.36733,0.36733 0.18505,1.02958 0.37798,1.5119 0.74695,1.86738 0.51587,4.4951 0.37797,6.4256 -0.64359,9.01026 -7.75995,14.88997 -15.875,17.3869 -1.25722,0.38684 -2.46976,1.01484 -3.77976,1.13393 -3.71782,0.33799 -13.92266,-0.58832 -17.00893,-2.64583 -0.88952,-0.59302 -1.37833,-1.67484 -2.26785,-2.26786 -0.33151,-0.221 -0.77757,-0.1998 -1.13393,-0.37797 -0.74447,-0.37224 -1.08763,-1.4656 -1.51191,-1.88989 -0.0891,-0.0891 -0.28888,0.0891 -0.37797,0 -0.0362,-0.0362 -0.41631,-2.98547 -1.13393,-2.26785 -0.18937,0.18936 -0.13019,1.26411 -0.37798,1.5119 -0.19921,0.19921 -0.50397,0.25199 -0.75595,0.37798 -0.50397,0.75595 -0.93434,1.56652 -1.51191,2.26786 -3.37805,4.10192 -3.87536,3.96948 -7.55952,6.42559 -0.67125,0.4475 -1.1981,1.09684 -1.88988,1.51191 -3.80053,2.28031 -11.55471,3.85655 -15.875,3.40178 -4.08132,-0.42961 -11.621631,-2.40903 -15.119047,-4.15774 -1.72679,-0.86339 -3.186904,-2.16041 -4.913691,-3.02381 -5.017481,-2.50874 2.231223,1.90093 -4.913691,-2.64583 -1.08328,-0.68936 -1.950418,-1.73116 -3.023809,-2.26786 -0.162779,-0.0814 -0.109524,-0.32321 -0.755951,0 -0.225383,0.11269 0.139774,0.54629 0,0.75596 -0.197673,0.2965 -0.503968,0.50396 -0.755955,0.75595 -7.801975,7.80197 5.095108,-4.88798 -4.535712,3.77976 -0.468246,0.42142 -0.755954,1.00794 -1.13393,1.5119 -1.511903,1.51191 -2.900214,3.15846 -4.535712,4.53572 -5.260356,4.42977 -19.223196,6.21773 -25.324406,3.40178 -4.056359,-1.87216 -10.082895,-7.27201 -12.095239,-10.96131 -0.558707,-1.02429 -2.761591,-6.54135 -3.401785,-7.18154 -0.03059,-0.0306 -5.428885,1.16137 -7.181547,1.5119 -3.077259,0.61545 -8.401213,-0.18315 -10.961309,-1.88988 -0.593018,-0.39535 -0.907521,-1.13416 -1.5119052,-1.5119 -0.440517,-0.27533 -1.1018531,-0.059 -1.5119048,-0.37798 -1.9763245,-1.53714 -5.6913706,-6.67434 -6.4255951,-8.69345 -2.76767298,-7.6111 -1.15135337,-16.75427 3.0238096,-23.43453 1.3034783,-2.08556 2.9451816,-4.51695 4.5357142,-6.42559 0.5383715,-0.64605 1.8694603,-1.47107 2.2678573,-2.26786 0.05635,-0.11269 -0.08909,-0.28888 0,-0.37797 0.08909,-0.0891 0.288886,0.0891 0.377976,0 0.573517,-0.57352 -0.500484,-0.75073 -0.755952,-1.13393 -0.44201,-0.66302 -0.399593,-1.55514 -0.755953,-2.26786 -0.279254,-0.55851 -0.9453489,-1.22985 -1.1339283,-1.88988 -1.707851,-5.97748 -1.6870127,-12.05893 -1.1339287,-18.14286 0.2732193,-3.00541 1.1940627,-6.63176 3.02381,-9.07143 0.04879,-0.065 2.505367,-2.64583 1.88988,-2.64583 -0.125991,0 0.125993,0.37798 0,0.37798 -0.326606,0 -0.993001,-1.67849 -1.133928,-1.88988 C 9.8079294,97.110702 8.3789871,92.543745 7.5595238,88.446426 7.2848705,87.073162 7.3027007,84.744268 7.1815475,83.532738 c -0.1028978,-1.02898 0.1510144,-1.019566 0.3779763,-2.267857 0.6112994,-3.362148 1.191392,-5.086083 2.267857,-8.315476 0.3737232,-1.121169 1.1576412,-1.583044 1.5119052,-2.645833 0.119526,-0.358582 0,-1.511906 0,-1.13393 0,1.918409 -0.150178,-0.300355 -0.377977,-0.755952 C 10.758153,68.007377 10.408513,67.686073 10.205357,67.27976 9.3569114,65.582871 9.4290982,64.15442 9.0714284,62.366072 9.0364846,62.191352 8.7366672,62.160954 8.6934523,61.988093 8.133567,59.748554 9.1141954,55.253492 10.583333,53.294642 c 0.534539,-0.712719 1.319542,-1.205474 1.889881,-1.889882 0.820283,-0.98434 3.031592,-3.779761 4.535714,-3.779761"
       style="fill:none;stroke:#000000;stroke-width:0.264583px;stroke-linecap:butt;stroke-linejoin:miter;stroke-opacity:1" />
    <path
       id="path44"
       d="m 7.9374999,193.90178 c 1.3859126,1.76389 2.6203111,3.65815 4.1577381,5.29167 2.623017,2.78696 8.199541,0.89602 7.559524,0 -1.430093,-2.00213 -5.757473,-7.09372 -8.315476,-4.53571"
       style="fill:none;stroke:#000000;stroke-width:0.264583px;stroke-linecap:butt;stroke-linejoin:miter;stroke-opacity:1" />
    <path
       id="path46"
       d="m 3.4017857,213.55655 c 1.8898809,1.00793 3.6101882,2.43539 5.6696427,3.0238 3.7562776,1.07323 6.2336546,-8.08416 1.5119046,-7.55952 -0.6385066,0.071 -1.4145165,-0.0542 -1.8898807,0.37798 -1.0083996,0.91672 -1.7893416,2.12574 -2.2678572,3.40178 -0.3096713,0.82579 0,1.76389 0,2.64583"
       style="fill:none;stroke:#000000;stroke-width:0.264583px;stroke-linecap:butt;stroke-linejoin:miter;stroke-opacity:1" />
    <path
       id="path48"
       d="m 198.05952,99.407738 0.75595,-0.755954"
       style="fill:none;stroke:#000000;stroke-width:0.264583px;stroke-linecap:butt;stroke-linejoin:miter;stroke-opacity:1" />
  </g>
</svg>
